<svg width="32" height="32" viewBox="0 0 32 32" fill="none" xmlns="http://www.w3.org/2000/svg">
<path d="M21 22C21.5304 22 22.0391 22.2107 22.4142 22.5858C22.7893 22.9609 23 23.4696 23 24C23 24.5304 22.7893 25.0391 22.4142 25.4142C22.0391 25.7893 21.5304 26 21 26C20.4696 26 19.9609 25.7893 19.5858 25.4142C19.2107 25.0391 19 24.5304 19 24C19 22.89 19.89 22 21 22ZM5 6H8.27L9.21 8H24C24.2652 8 24.5196 8.10536 24.7071 8.29289C24.8946 8.48043 25 8.73478 25 9C25 9.17 24.95 9.34 24.88 9.5L21.3 15.97C20.96 16.58 20.3 17 19.55 17H12.1L11.2 18.63L11.17 18.75C11.17 18.8163 11.1963 18.8799 11.2432 18.9268C11.2901 18.9737 11.3537 19 11.42 19H23V21H11C10.4696 21 9.96086 20.7893 9.58579 20.4142C9.21071 20.0391 9 19.5304 9 19C9 18.65 9.09 18.32 9.24 18.04L10.6 15.59L7 8H5V6ZM11 22C11.5304 22 12.0391 22.2107 12.4142 22.5858C12.7893 22.9609 13 23.4696 13 24C13 24.5304 12.7893 25.0391 12.4142 25.4142C12.0391 25.7893 11.5304 26 11 26C10.4696 26 9.96086 25.7893 9.58579 25.4142C9.21071 25.0391 9 24.5304 9 24C9 22.89 9.89 22 11 22ZM20 15L22.78 10H10.14L12.5 15H20Z" fill="#343235"/>
</svg>
