<svg width="42" height="42" viewBox="0 0 42 42" fill="none" xmlns="http://www.w3.org/2000/svg">
<path fill-rule="evenodd" clip-rule="evenodd" d="M19.0835 7.00463C19.5433 7.00914 19.8981 7.01286 20.2105 7.07833C21.4848 7.34605 22.4727 8.35481 22.7131 9.63465C22.7721 9.94844 22.7682 10.3032 22.7631 10.7628L22.7614 10.9345C22.7567 11.3943 22.7531 11.7488 22.6875 12.0614C22.4199 13.3357 21.411 14.3236 20.1313 14.5641C19.8174 14.6231 19.4628 14.6189 19.003 14.614L18.8315 14.6121C18.3717 14.6076 18.017 14.6038 17.7046 14.5384C16.43 14.2707 15.4424 13.2619 15.2019 11.9821C15.1823 11.8784 15.1698 11.7704 15.1618 11.6555H4.87805C4.39316 11.6555 4 11.2624 4 10.7775C4 10.2926 4.39316 9.89944 4.87805 9.89944H15.1788C15.1892 9.77792 15.2047 9.66405 15.2274 9.55527C15.4949 8.28095 16.5039 7.29312 17.7835 7.05263C18.0975 6.99364 18.4521 6.99756 18.9119 7.00266L19.0835 7.00463ZM19.8497 8.797C19.73 8.77192 19.5653 8.76584 18.9793 8.75977C18.3932 8.75349 18.2282 8.75604 18.1081 8.77858C17.5264 8.88795 17.0678 9.33697 16.9463 9.91613C16.921 10.0359 16.9151 10.2007 16.9088 10.7868C16.9028 11.3728 16.9051 11.5376 16.9277 11.6577C17.037 12.2394 17.486 12.698 18.0654 12.8198C18.1852 12.8448 18.3498 12.8509 18.936 12.857C19.5219 12.8633 19.6867 12.8607 19.807 12.8382C20.3887 12.7288 20.8473 12.2798 20.9688 11.7006C20.9941 11.5809 21 11.4161 21.0063 10.83C21.0123 10.244 21.01 10.0792 20.9875 9.95904C20.8781 9.37732 20.4291 8.91873 19.8497 8.797Z" fill="#343235"/>
<path d="M27.1223 11.6556C27.6072 11.6556 28.0003 11.2625 28.0003 10.7776C28.0003 10.2927 27.6072 9.89954 27.1223 9.89954H24.7808C24.2959 9.89954 23.9027 10.2927 23.9027 10.7776C23.9027 11.2625 24.2959 11.6556 24.7808 11.6556H27.1223Z" fill="#343235"/>
<path d="M4.87805 22.1922C4.39316 22.1922 4 21.7991 4 21.3142C4 20.8293 4.39316 20.4361 4.87805 20.4361H7.21898C7.70386 20.4361 8.09702 20.8293 8.09702 21.3142C8.09702 21.7991 7.70386 22.1922 7.21898 22.1922H4.87805Z" fill="#343235"/>
<path fill-rule="evenodd" clip-rule="evenodd" d="M27.1221 20.436H16.8951C16.8871 20.3439 16.8757 20.2561 16.8596 20.1712C16.6191 18.8914 15.6315 17.8826 14.3572 17.6151C14.0446 17.5494 13.6898 17.5459 13.2302 17.5412L13.0585 17.5392C12.5989 17.5342 12.2442 17.5302 11.9304 17.5892C10.6506 17.8297 9.64162 18.8175 9.37409 20.0919C9.30862 20.4045 9.3049 20.7592 9.30039 21.2188L9.29843 21.3903C9.29334 21.8501 9.28942 22.2048 9.34841 22.5186C9.58889 23.7985 10.5767 24.8072 11.851 25.075C12.1635 25.1404 12.5182 25.1441 12.978 25.1487L13.1495 25.1506C13.6093 25.1555 13.964 25.1596 14.2778 25.1006C15.5577 24.8602 16.5664 23.8724 16.8339 22.598C16.8608 22.471 16.8771 22.3371 16.8875 22.1921H27.122C27.6069 22.1921 28 21.7989 28 21.3141C28 20.8292 27.6069 20.436 27.122 20.436H27.1221ZM13.1255 19.2963C13.7115 19.3026 13.8764 19.3085 13.9961 19.3337C14.5753 19.4553 15.0243 19.9137 15.1337 20.4954C15.1562 20.6157 15.1588 20.7805 15.1525 21.3665C15.1462 21.9525 15.1403 22.1174 15.1153 22.2372C14.9935 22.8165 14.5349 23.2653 13.9532 23.3747C13.8331 23.3973 13.6682 23.3998 13.0822 23.3935C12.496 23.3875 12.3314 23.3814 12.2116 23.3563C11.6323 23.2346 11.1835 22.776 11.0741 22.1943C11.0515 22.0741 11.049 21.9093 11.0553 21.3233C11.0613 20.737 11.0674 20.5724 11.0925 20.4527C11.2142 19.8735 11.6726 19.4245 12.2543 19.3151C12.3747 19.2926 12.5395 19.29 13.1255 19.2963V19.2963Z" fill="#343235"/>
</svg>
