<svg width="24" height="24" viewBox="0 0 24 24" fill="none" xmlns="http://www.w3.org/2000/svg">
<path d="M11.0093 15.3898C11.0214 15.3684 11.0337 15.3472 11.0459 15.326C11.0558 15.309 11.0657 15.2921 11.0756 15.2752C11.0853 15.2586 11.095 15.2422 11.1047 15.2256C11.114 15.21 11.1231 15.1943 11.1326 15.1788C11.1676 15.12 11.2027 15.0613 11.2379 15.003C11.2172 14.9756 11.1982 14.9469 11.181 14.9171C11.1355 14.8384 11.1038 14.753 11.086 14.6649C11.0856 14.663 11.0848 14.6613 11.0844 14.6594C11.0827 14.6507 11.0811 14.642 11.0797 14.6333C11.078 14.6223 11.0771 14.6114 11.0756 14.6003C11.0751 14.5965 11.0741 14.5928 11.0738 14.5891C10.962 14.5871 10.8488 14.5853 10.7388 14.5853C10.6977 14.5853 10.6557 14.5855 10.6133 14.5861H10.6129C10.3589 14.5894 10.0855 14.6052 9.84188 14.6634C9.84023 14.6639 9.83858 14.6642 9.83679 14.6646C9.79909 14.6737 9.76229 14.6841 9.72624 14.6953C9.63394 14.7241 9.54718 14.7603 9.46805 14.8058C9.05488 15.0443 8.76004 15.4099 8.67924 15.7838C8.66877 15.8323 8.64154 15.8754 8.6022 15.9056C8.36435 16.0886 8.26323 16.362 8.36704 16.5415C8.43182 16.6536 8.5675 16.7177 8.73923 16.7177C8.83571 16.7177 8.93819 16.6965 9.03572 16.6561C9.08149 16.6372 9.13265 16.6353 9.17978 16.6503C9.29167 16.6863 9.41538 16.7046 9.54747 16.7046C9.83349 16.7046 10.1437 16.6165 10.4212 16.4562C10.4781 16.4233 10.5357 16.3825 10.5929 16.3345C10.5941 16.3298 10.5955 16.3253 10.5967 16.3207C10.598 16.3158 10.5994 16.3107 10.6009 16.3058C10.6091 16.2752 10.6181 16.2447 10.6277 16.2141C10.6296 16.2079 10.6315 16.2018 10.6335 16.1957C10.6562 16.1253 10.6823 16.0549 10.7113 15.9844C10.7134 15.9792 10.7156 15.974 10.7179 15.9687C10.73 15.9397 10.7425 15.9107 10.7556 15.8817C10.7594 15.873 10.7633 15.8643 10.7672 15.8558C10.7804 15.8269 10.794 15.798 10.8079 15.7693C10.8106 15.7638 10.8131 15.7581 10.8158 15.7526C10.8318 15.72 10.8482 15.6875 10.8651 15.6549C10.8713 15.6426 10.8779 15.6304 10.8844 15.6181C10.8953 15.5973 10.9062 15.5767 10.9174 15.556C10.9252 15.5415 10.933 15.5271 10.9409 15.5128C10.9517 15.4932 10.9624 15.4736 10.9735 15.4541C10.985 15.4326 10.997 15.4112 11.0093 15.3898L11.0093 15.3898Z" fill="#797474"/>
<path d="M9.65827 14.2781C9.66097 14.2774 9.66381 14.2768 9.6665 14.276C9.70689 14.2648 9.74788 14.2547 9.78916 14.2455C9.79111 14.2451 9.79305 14.2446 9.795 14.2443C9.83673 14.2354 9.87907 14.2273 9.92155 14.2203C9.92425 14.2198 9.92679 14.2194 9.92948 14.2189C10.0177 14.2044 10.1075 14.1936 10.1981 14.1858C10.2004 14.1857 10.2025 14.1854 10.2046 14.1852C10.293 14.1778 10.382 14.173 10.4713 14.1701C10.4746 14.17 10.4779 14.17 10.4813 14.1698C10.5223 14.1686 10.5631 14.1677 10.604 14.1671C10.6062 14.1671 10.6083 14.167 10.6106 14.167C10.6531 14.1664 10.6957 14.1661 10.738 14.1661C10.8692 14.1661 11.0031 14.1685 11.1335 14.1709C11.147 14.1393 11.1624 14.1085 11.1798 14.0786C11.2254 13.9996 11.2836 13.9297 11.3509 13.8702C11.3522 13.869 11.3533 13.8674 11.3548 13.8662C11.3621 13.8597 11.3696 13.8535 11.3772 13.8472C11.3853 13.8406 11.3938 13.8348 11.402 13.8285C11.4047 13.8264 11.4073 13.824 11.4101 13.8219C11.4077 13.8177 11.4055 13.8134 11.4031 13.8092C11.395 13.7945 11.3868 13.7799 11.3787 13.7652C11.3705 13.7504 11.3621 13.7354 11.354 13.7206C11.0804 13.2304 10.7911 12.754 10.4198 12.5397C10.1423 12.3797 9.83191 12.2914 9.54607 12.2914C9.41413 12.2914 9.29042 12.3097 9.17852 12.3456C9.13125 12.3607 9.08024 12.3587 9.03447 12.3397C8.93678 12.2993 8.83416 12.278 8.73768 12.278C8.56609 12.278 8.43072 12.3421 8.36594 12.4542C8.26213 12.6338 8.36325 12.9074 8.6011 13.0904C8.64044 13.1206 8.66767 13.1637 8.67814 13.2121C8.75892 13.586 9.05376 13.9516 9.4671 14.1902C9.52469 14.2237 9.58872 14.253 9.65828 14.2781L9.65827 14.2781Z" fill="#797474"/>
<path d="M12.6321 14.0797C12.6771 14.158 12.7087 14.2425 12.7266 14.3299C12.7272 14.3324 12.7283 14.3346 12.7287 14.3372C12.7332 14.3601 12.7367 14.3834 12.7391 14.4069C12.7516 14.4071 12.764 14.4074 12.7766 14.4075C12.8127 14.4081 12.8486 14.4087 12.8846 14.4091C12.9356 14.4099 12.9863 14.4102 13.0366 14.4103C13.0496 14.4103 13.0628 14.4106 13.0756 14.4106H13.0904C13.1207 14.4106 13.1512 14.4103 13.1821 14.41C13.1931 14.4099 13.204 14.4097 13.2151 14.4096C13.5084 14.4053 13.8257 14.3836 14.0935 14.2986C14.1831 14.27 14.2676 14.2347 14.3446 14.1903C14.7577 13.9518 15.0528 13.5863 15.1339 13.2121C15.1445 13.1638 15.1717 13.1207 15.2109 13.0905C15.4486 12.9077 15.5496 12.6341 15.4456 12.4541C15.3811 12.3423 15.2458 12.2781 15.0743 12.2781C14.9778 12.2781 14.8752 12.2995 14.7775 12.3399C14.7318 12.3589 14.6806 12.3608 14.6335 12.3457C14.5214 12.3096 14.3977 12.2914 14.2658 12.2914C13.9798 12.2914 13.6695 12.3796 13.3919 12.5397C13.3344 12.5729 13.2777 12.613 13.2203 12.6615C13.1063 13.1067 12.8378 13.5565 12.575 13.9927C12.5959 14.0207 12.6149 14.0495 12.6321 14.0798L12.6321 14.0797Z" fill="#797474"/>
<path d="M12.3215 14.4424C12.3206 14.4354 12.3196 14.4283 12.3182 14.421C12.3095 14.3748 12.2932 14.3298 12.2693 14.2882C12.2455 14.2466 12.2153 14.2102 12.1789 14.1793L12.1788 14.1791C12.1028 14.1143 12.0062 14.0787 11.9064 14.0787C11.8579 14.0787 11.8109 14.0867 11.767 14.1025C11.7668 14.1025 11.7667 14.1027 11.7665 14.1027C11.7664 14.1027 11.7662 14.1028 11.7661 14.1028C11.7311 14.1152 11.6982 14.1321 11.6681 14.1529C11.6679 14.1531 11.6676 14.1532 11.6675 14.1534C11.6171 14.1884 11.5744 14.2343 11.5432 14.2883C11.5191 14.33 11.5025 14.3746 11.4941 14.4207V14.421V14.4211C11.4889 14.4494 11.4869 14.478 11.4875 14.5064C11.488 14.5236 11.4893 14.5405 11.4916 14.5568C11.492 14.5601 11.4923 14.5634 11.4928 14.5667C11.4943 14.5724 11.4953 14.5781 11.4962 14.5839C11.5052 14.6271 11.5207 14.6689 11.543 14.7075C11.5659 14.747 11.5952 14.7826 11.6299 14.8137C11.6314 14.8149 11.6329 14.8158 11.6343 14.817C11.746 14.9127 11.907 14.9426 12.0458 14.8934C12.0741 14.8834 12.1007 14.8702 12.1257 14.855C12.1448 14.843 12.1632 14.8297 12.1815 14.814C12.1818 14.8138 12.1819 14.8137 12.1822 14.8134C12.2162 14.7835 12.2455 14.7483 12.269 14.7078C12.2925 14.6671 12.3086 14.6237 12.3176 14.5785C12.3179 14.5772 12.3179 14.5757 12.3182 14.5742C12.3246 14.5401 12.3264 14.5054 12.324 14.471C12.3237 14.4677 12.3237 14.4644 12.3234 14.4611C12.3233 14.4548 12.3222 14.4485 12.3215 14.4424L12.3215 14.4424Z" fill="#797474"/>
<path d="M11.2885 12.8161C11.2907 12.8194 11.2931 12.8225 11.2954 12.8256C11.3407 12.8891 11.3847 12.9544 11.4276 13.0215C11.432 13.0282 11.4361 13.0351 11.4405 13.0418C11.4565 13.0671 11.4725 13.0925 11.4882 13.1181C11.4945 13.1283 11.5009 13.1386 11.5072 13.1489C11.5222 13.1736 11.5371 13.1984 11.5519 13.2234C11.557 13.2319 11.5619 13.2402 11.567 13.2487C11.585 13.2792 11.6028 13.3099 11.6204 13.3405C11.6296 13.3564 11.6387 13.3724 11.6477 13.3883C11.6571 13.4049 11.6664 13.4213 11.6758 13.4379L11.7063 13.4922C11.7126 13.5034 11.7189 13.5147 11.7251 13.526C11.7512 13.5727 11.7772 13.6195 11.8031 13.6663C11.837 13.6622 11.8715 13.6601 11.9062 13.6601C12.0005 13.6601 12.0933 13.6767 12.1811 13.7073C12.1856 13.709 12.1902 13.7105 12.1946 13.7124C12.211 13.7186 12.2276 13.7241 12.2436 13.7311C12.5524 13.2176 12.8586 12.6907 12.8586 12.2322C12.8586 11.755 12.6894 11.3169 12.4061 11.06C12.3693 11.0268 12.3457 10.9815 12.3391 10.9324C12.2998 10.6349 12.1135 10.4106 11.906 10.4106C11.6984 10.4106 11.512 10.6349 11.4725 10.9324C11.4659 10.9815 11.4423 11.0268 11.4055 11.06C11.1222 11.3169 10.953 11.755 10.953 12.2322C10.953 12.2989 10.9594 12.3677 10.9726 12.4415C11.086 12.5522 11.1901 12.6792 11.2885 12.8161L11.2885 12.8161Z" fill="#797474"/>
<path d="M14.9088 21.4971L15.4869 20.463H12.0229L14.9088 21.4971Z" fill="#797474"/>
<path d="M5.58158 18.689V12.4587L3.90332 18.0234L5.58158 18.689Z" fill="#797474"/>
<path d="M8.85905 2.49719L8.59473 3.29017H11.7665L8.85905 2.49719Z" fill="#797474"/>
<path d="M18.1466 5.48438V11.342L19.7737 6.13501L18.1466 5.48438Z" fill="#797474"/>
<path d="M8.30345 3.70898H5.99976V20.0442H17.7277V3.70898H8.30345ZM7.70447 4.96553H11.2353C11.3509 4.96553 11.4447 5.05932 11.4447 5.17496C11.4447 5.29059 11.3509 5.38439 11.2353 5.38439H7.70447C7.58884 5.38439 7.49504 5.2906 7.49504 5.17496C7.49504 5.05933 7.58884 4.96553 7.70447 4.96553ZM15.8081 16.7513C15.669 16.9926 15.3944 17.1368 15.0738 17.1368C14.9472 17.1368 14.8156 17.114 14.6889 17.0705C14.5559 17.1058 14.4139 17.1236 14.2657 17.1236C13.9343 17.1236 13.594 17.036 13.2751 16.8696C13.2519 17.393 13.0574 17.877 12.742 18.1944C12.6504 18.6683 12.3083 19.0046 11.9059 19.0046C11.5033 19.0046 11.1609 18.6683 11.0694 18.1944C10.754 17.8771 10.5596 17.3932 10.5364 16.8699C10.2174 17.0361 9.87727 17.1238 9.54625 17.1238C9.398 17.1238 9.25589 17.106 9.12289 17.0707C8.99634 17.1142 8.8647 17.1369 8.73799 17.1369C8.41741 17.1369 8.14276 16.9929 8.00318 16.7515C7.80168 16.4031 7.9218 15.9384 8.2865 15.6222C8.40363 15.1905 8.7254 14.7802 9.16699 14.4983C8.7254 14.2165 8.40361 13.8063 8.2865 13.3746C7.9218 13.0583 7.80183 12.5937 8.00318 12.245C8.14274 12.0036 8.41723 11.8595 8.73768 11.8595C8.86453 11.8595 8.99632 11.8824 9.12301 11.926C9.256 11.8908 9.39796 11.8729 9.54621 11.8729C9.8774 11.8729 10.2176 11.9605 10.5365 12.1267C10.5597 11.6033 10.7541 11.1195 11.0695 10.8022C11.1609 10.3283 11.5033 9.99205 11.906 9.99205C12.3086 9.99205 12.6507 10.3283 12.7421 10.8022C13.0574 11.1197 13.252 11.6034 13.2752 12.127C13.5941 11.9608 13.9345 11.873 14.2658 11.873C14.414 11.873 14.556 11.8908 14.689 11.9261C14.8156 11.8826 14.9475 11.8597 15.0743 11.8597C15.3948 11.8597 15.6691 12.0037 15.8084 12.2452C16.0099 12.5939 15.8898 13.0586 15.5254 13.3747C15.4078 13.8066 15.086 14.2168 14.6446 14.4985C15.0858 14.78 15.4078 15.1905 15.5254 15.6222C15.8898 15.9381 16.0097 16.4028 15.8081 16.7513L15.8081 16.7513ZM16.266 7.68833C16.266 7.80396 16.1723 7.89776 16.0566 7.89776H7.67109C7.55545 7.89776 7.46166 7.80397 7.46166 7.68833C7.46166 7.5727 7.55545 7.4789 7.67109 7.4789H16.0566C16.1722 7.4789 16.266 7.57269 16.266 7.68833ZM14.5007 6.43178C14.5007 6.54742 14.4069 6.64121 14.2913 6.64121H7.67078C7.55515 6.64121 7.46135 6.54742 7.46135 6.43178C7.46135 6.31615 7.55514 6.22235 7.67078 6.22235H14.2913C14.4069 6.22235 14.5007 6.31615 14.5007 6.43178Z" fill="#797474"/>
<path d="M15.2114 15.9057C15.1722 15.8754 15.145 15.8325 15.1345 15.784C15.0533 15.4099 14.7582 15.0443 14.3452 14.8059C14.288 14.7728 14.2238 14.7433 14.154 14.7179C14.1535 14.718 14.1531 14.718 14.1526 14.7182C13.98 14.7667 13.7975 14.7946 13.6111 14.8103C13.6108 14.8103 13.6105 14.8105 13.6101 14.8105C13.5227 14.8178 13.4347 14.8226 13.3466 14.8254C13.3366 14.8257 13.3269 14.826 13.3169 14.8263C13.2868 14.8272 13.2566 14.8278 13.2265 14.8283C13.2133 14.8284 13.2005 14.8287 13.1875 14.8289C13.1566 14.8292 13.1258 14.8295 13.0952 14.8295C13.0883 14.8295 13.0811 14.8296 13.0744 14.8296C12.943 14.8296 12.8087 14.8272 12.6779 14.8249C12.6645 14.8564 12.6491 14.8872 12.6317 14.9171C12.5871 14.9946 12.5303 15.0637 12.4645 15.1227C12.4618 15.1252 12.4594 15.1279 12.4567 15.1303C12.4398 15.145 12.4223 15.1586 12.4043 15.1718C12.4034 15.1725 12.4024 15.1734 12.4015 15.1741C12.4278 15.2217 12.4541 15.269 12.4803 15.3157C12.4902 15.3332 12.4999 15.3508 12.5098 15.3683C12.5113 15.371 12.5129 15.3737 12.5144 15.3764C12.7714 15.83 13.0464 16.2566 13.3924 16.4564C13.6697 16.6165 13.9801 16.7048 14.2661 16.7048C14.3981 16.7048 14.5218 16.6865 14.6338 16.6505C14.6546 16.6437 14.6763 16.6404 14.6979 16.6404C14.7249 16.6404 14.7522 16.6458 14.7777 16.6563C14.8753 16.6965 14.9779 16.7179 15.0742 16.7179C15.2458 16.7179 15.3813 16.6537 15.4458 16.5419C15.5502 16.3619 15.4493 16.0884 15.2114 15.9057L15.2114 15.9057Z" fill="#797474"/>
<path d="M12.8295 16.544C12.8259 16.5405 12.8225 16.5369 12.8191 16.5334C12.7966 16.511 12.7745 16.4878 12.7529 16.4642C12.7484 16.4594 12.744 16.4546 12.7398 16.4496C12.6903 16.3949 12.6424 16.3373 12.596 16.277C12.5923 16.2722 12.5885 16.2671 12.5848 16.2622C12.5659 16.2375 12.5474 16.2124 12.529 16.1871C12.5235 16.1793 12.5178 16.1716 12.5122 16.1636C12.4938 16.1376 12.4754 16.1114 12.4573 16.0846C12.4541 16.0797 12.4506 16.0749 12.4473 16.07C12.427 16.0398 12.4069 16.0091 12.387 15.9783C12.3797 15.9669 12.3727 15.9556 12.3655 15.9442C12.3526 15.924 12.3399 15.9035 12.3274 15.883C12.319 15.8695 12.3106 15.8559 12.3024 15.8423C12.2904 15.8224 12.2784 15.8025 12.2665 15.7825C12.2541 15.7615 12.2416 15.7406 12.2294 15.7195C12.2174 15.699 12.2053 15.6784 12.1935 15.6577C12.1828 15.6393 12.1724 15.6208 12.1618 15.6022C12.154 15.5886 12.1462 15.575 12.1386 15.5612C12.1272 15.5413 12.1161 15.5214 12.1049 15.5014C12.1003 15.4933 12.0958 15.4851 12.0913 15.4769C12.0639 15.4278 12.0367 15.3787 12.0096 15.3298C11.8865 15.3451 11.7603 15.3316 11.643 15.2929C11.64 15.292 11.6368 15.2915 11.6337 15.2905C11.6309 15.2896 11.6282 15.2882 11.6255 15.2872C11.6065 15.2805 11.5876 15.2731 11.5691 15.2649C11.5577 15.2837 11.5465 15.3027 11.5351 15.3216C11.4977 15.384 11.4606 15.4465 11.4241 15.5092C11.4192 15.5176 11.4142 15.5261 11.4093 15.5345C11.3988 15.5527 11.3884 15.5708 11.378 15.5891C11.371 15.6013 11.364 15.6136 11.3571 15.6259C11.348 15.6422 11.3389 15.6583 11.3299 15.6745C11.3215 15.6896 11.3133 15.7045 11.305 15.7196C11.2974 15.7336 11.2898 15.7476 11.2823 15.7615C11.2715 15.7816 11.2609 15.8018 11.2504 15.8218C11.2457 15.8308 11.2409 15.8399 11.2362 15.8489C11.2042 15.911 11.174 15.9729 11.146 16.0344C11.1456 16.0353 11.1451 16.0363 11.1447 16.0374C11.1311 16.0673 11.1181 16.0969 11.1058 16.1267C11.1047 16.1292 11.1037 16.1318 11.1026 16.1342C11.0907 16.1629 11.0793 16.1916 11.0685 16.22C11.0678 16.2221 11.0669 16.2242 11.0661 16.2263C11.0549 16.2565 11.0443 16.2866 11.0344 16.3165V16.3167C10.9839 16.4707 10.9541 16.6208 10.9541 16.764C10.9541 17.2412 11.1233 17.6793 11.4066 17.9361C11.4432 17.9695 11.467 18.0147 11.4736 18.0637C11.5131 18.3613 11.6995 18.5855 11.9071 18.5855C12.1145 18.5855 12.3007 18.3613 12.3402 18.0637C12.3468 18.0147 12.3704 17.9694 12.4072 17.9361C12.6905 17.6793 12.8597 17.2412 12.8597 16.764C12.8597 16.6974 12.8533 16.6271 12.8403 16.5541C12.8364 16.5511 12.8329 16.5475 12.8295 16.5441L12.8295 16.544Z" fill="#797474"/>
</svg>
