<svg width="24" height="24" viewBox="0 0 24 24" fill="none" xmlns="http://www.w3.org/2000/svg">
<path fill-rule="evenodd" clip-rule="evenodd" d="M16.3783 2.72377C16.7677 4.62142 17.3277 8.33326 15.4614 9.60046C14.407 10.3163 13.3633 10.3583 12.5284 10.0115V17.9304H11.7484V15.1723C11.2298 15.7543 10.4315 16.1532 9.35308 16.1587C7.09718 16.1697 5.45925 12.7923 4.70668 11.0073C4.65445 10.8861 4.67146 10.7408 4.76226 10.6332C4.8903 10.482 5.11664 10.4632 5.26797 10.5911C6.463 11.599 8.95334 10.2876 10.524 10.6981C11.0317 10.8308 11.4398 11.08 11.7485 11.4013V9.52622C10.703 8.6171 10.3358 6.99686 11.4068 5.76027C12.4697 4.53336 15.265 4.20549 15.6802 2.69839C15.7326 2.50727 15.93 2.39477 16.1211 2.44714C16.2568 2.48424 16.3529 2.59473 16.3784 2.7241L16.3783 2.72377ZM11.7483 13.3849V13.1444C11.7044 12.3618 11.231 11.625 10.341 11.3923C9.08572 11.0643 7.27821 11.9811 5.76456 11.6169C6.37166 12.8982 7.74525 15.449 9.34982 15.4415C10.3872 15.4363 11.0835 14.9774 11.4486 14.3675C10.2643 14.3299 9.13848 13.998 8.31079 13.4489C7.26909 12.7581 7.33485 12.6405 8.51262 13.0013C9.38115 13.2674 10.483 13.5207 11.7483 13.385L11.7483 13.3849ZM11.917 8.66857C13.037 8.06456 13.8025 7.23231 14.3681 6.52171C15.1351 5.55797 15.2558 5.61769 14.7877 6.77671C14.4158 7.69759 13.6752 8.60818 12.7201 9.30929C13.3662 9.60554 14.2 9.58987 15.0582 9.00741C16.3856 8.10621 16.0751 5.2257 15.8507 3.82547C14.8087 4.9822 12.7997 5.24874 11.95 6.22948C11.2864 6.99542 11.3862 7.98045 11.9168 8.66846L11.917 8.66857Z" fill="#938C8C"/>
<path fill-rule="evenodd" clip-rule="evenodd" d="M8.25497 18.8178C6.48871 18.3272 4.2384 19.8113 4.04572 21.5964H19.9848C19.7435 19.4232 17.6151 18.3838 16.0673 19.5216C14.7868 15.6281 10.0197 15.8764 8.25463 18.8178H8.25497Z" fill="#938C8C"/>
</svg>
