<svg width="12" height="12" viewBox="0 0 12 12" fill="none" xmlns="http://www.w3.org/2000/svg">
<path d="M6 10.8C4.72696 10.8 3.50606 10.2943 2.60589 9.39411C1.70571 8.49394 1.2 7.27304 1.2 6C1.2 4.72696 1.70571 3.50606 2.60589 2.60589C3.50606 1.70571 4.72696 1.2 6 1.2C7.27304 1.2 8.49394 1.70571 9.39411 2.60589C10.2943 3.50606 10.8 4.72696 10.8 6C10.8 7.27304 10.2943 8.49394 9.39411 9.39411C8.49394 10.2943 7.27304 10.8 6 10.8ZM6 0C5.21207 0 4.43185 0.155195 3.7039 0.456723C2.97595 0.758251 2.31451 1.20021 1.75736 1.75736C0.632141 2.88258 0 4.4087 0 6C0 7.5913 0.632141 9.11742 1.75736 10.2426C2.31451 10.7998 2.97595 11.2417 3.7039 11.5433C4.43185 11.8448 5.21207 12 6 12C7.5913 12 9.11742 11.3679 10.2426 10.2426C11.3679 9.11742 12 7.5913 12 6C12 5.21207 11.8448 4.43185 11.5433 3.7039C11.2417 2.97595 10.7998 2.31451 10.2426 1.75736C9.68549 1.20021 9.02405 0.758251 8.2961 0.456723C7.56815 0.155195 6.78793 0 6 0ZM6 3C5.20435 3 4.44129 3.31607 3.87868 3.87868C3.31607 4.44129 3 5.20435 3 6C3 6.79565 3.31607 7.55871 3.87868 8.12132C4.44129 8.68393 5.20435 9 6 9C6.79565 9 7.55871 8.68393 8.12132 8.12132C8.68393 7.55871 9 6.79565 9 6C9 5.20435 8.68393 4.44129 8.12132 3.87868C7.55871 3.31607 6.79565 3 6 3Z" fill="#343235"/>
</svg>
