<svg width="15" height="16" viewBox="0 0 15 16" fill="none" xmlns="http://www.w3.org/2000/svg">
<path fill-rule="evenodd" clip-rule="evenodd" d="M5.48058 7.1822C7.3687 7.1822 8.91609 7.70743 9.10054 8.37473H1.86041C2.0592 7.70751 3.6066 7.1822 5.48037 7.1822H5.48058ZM10.2078 8.77222C11.6843 8.01978 13.1182 7.83525 13.5298 8.28953L7.83713 11.1429C7.72356 10.5325 8.73148 9.51041 10.2078 8.77222ZM13.6434 8.64448C13.6149 9.25493 12.6354 10.1919 11.2726 10.8733C9.89558 11.5689 8.57533 11.7818 8.05013 11.4411L13.6434 8.64448ZM9.10054 4.51328C10.8467 5.22312 12.0817 6.302 11.9967 6.99758L5.29592 4.25776C5.73601 3.70411 7.36855 3.8035 9.10054 4.51332V4.51328ZM11.7837 7.36668C11.23 7.7926 9.71105 7.66478 8.09265 6.99756C6.47428 6.34451 5.29592 5.36503 5.19651 4.66936L11.7837 7.36668ZM9.04385 8.80052C8.68899 9.41096 7.2267 9.86522 5.48058 9.86522C3.7344 9.86522 2.27224 9.41096 1.93148 8.80052H9.04385Z" fill="#797474"/>
</svg>
