<svg width="24" height="24" viewBox="0 0 24 24" fill="none" xmlns="http://www.w3.org/2000/svg">
<path d="M14.5666 9.89915C14.3151 9.90089 14.0646 9.93009 13.8196 9.98621C12.8578 10.2 11.8661 10.7798 11.0272 11.6185C10.1882 12.4575 9.60859 13.4492 9.39485 14.4109C9.19195 15.324 9.34677 16.0936 9.83093 16.5776C10.3151 17.0617 11.0845 17.2166 11.9976 17.0137C12.9594 16.7999 13.9511 16.2201 14.79 15.3814C15.629 14.5424 16.2086 13.5507 16.4223 12.589C16.6252 11.6758 16.4704 10.9063 15.9862 10.4223C15.641 10.077 15.1507 9.89916 14.5666 9.89916V9.89915ZM15.5837 11.196C15.5503 11.3576 15.3927 11.462 15.2309 11.4295C15.1614 11.4163 13.6162 11.1487 12.8943 13.3147C12.5155 14.4504 11.9803 15.1857 11.3029 15.4997L11.3031 15.4999C11.0803 15.6046 10.8375 15.6591 10.5916 15.6598C10.4381 15.6613 10.2856 15.6382 10.1394 15.5916C10.0563 15.5723 9.98534 15.5186 9.94423 15.4438C9.90311 15.369 9.89588 15.2802 9.92414 15.1997C9.95253 15.1192 10.0137 15.0546 10.0926 15.022C10.1715 14.9895 10.2606 14.992 10.3374 15.0291L10.3388 15.0258L10.335 15.0243C10.3483 15.0291 10.6636 15.1413 11.066 14.948C11.5735 14.7042 12.0087 14.0737 12.3251 13.1248C12.5801 12.3594 13.1045 11.3644 14.1528 10.9712C14.7937 10.7308 15.3279 10.8366 15.3504 10.8413L15.3503 10.8414C15.4284 10.8574 15.4967 10.9039 15.5405 10.9703C15.5843 11.0368 15.5998 11.118 15.5837 11.196L15.5837 11.196ZM17.7086 3.59998H6.30859V5.39998H17.7086V3.59998ZM12.0086 4.79998C11.8872 4.79998 11.7778 4.72685 11.7315 4.61475C11.685 4.50266 11.7106 4.37368 11.7964 4.28783C11.8823 4.20198 12.0113 4.1764 12.1234 4.22288C12.2355 4.26922 12.3086 4.37864 12.3086 4.49998C12.3086 4.57953 12.277 4.65587 12.2207 4.71212C12.1645 4.76837 12.0881 4.79998 12.0086 4.79998ZM5.70859 19.8H18.3086V20.4H5.70859V19.8ZM10.1472 11.6921C9.81414 12.0871 9.52606 12.5179 9.28846 12.9767C8.02593 11.3815 7.72473 9.52828 8.63059 8.62246C9.1146 8.13831 9.88414 7.98347 10.7973 8.18638C11.6383 8.37321 12.5021 8.83983 13.2665 9.51481C12.3328 9.81106 11.4006 10.3963 10.6026 11.1944C10.586 11.2109 10.5698 11.2277 10.5534 11.2444C9.44355 10.4701 9.62945 9.42426 9.63802 9.37938C9.67056 9.21759 9.56623 9.05969 9.40445 9.02634C9.2428 8.99299 9.08449 9.09665 9.05035 9.2583C9.03762 9.32005 8.77405 10.6928 10.1472 11.692L10.1472 11.6921ZM17.7837 5.99998H6.2335C5.98975 6.85739 5.10852 10.1695 5.10852 13.2C5.10852 16.1175 5.51326 18.47 5.65387 19.2H18.3629C18.5037 18.4695 18.9084 16.1141 18.9084 13.2C18.9084 10.1672 18.0271 6.85712 17.7834 5.99998H17.7837ZM17.0082 12.7193C16.7701 13.7911 16.133 14.8872 15.2144 15.8058C14.2958 16.7244 13.1997 17.3615 12.1279 17.5996C11.8392 17.6654 11.5441 17.6994 11.248 17.7011C10.5043 17.7011 9.86786 17.4631 9.40675 17.002C8.77246 16.3677 8.5602 15.4013 8.80915 14.2809C8.86192 14.0458 8.93129 13.8148 9.01661 13.5895C8.26554 12.7176 7.75715 11.723 7.57863 10.7703C7.38095 9.71428 7.60394 8.80077 8.20661 8.1981C8.84089 7.56381 9.8072 7.35165 10.9278 7.60063C11.9815 7.83474 13.0584 8.45456 13.9673 9.34814C14.9692 9.19037 15.8293 9.41698 16.4105 9.99823C17.0449 10.6324 17.2572 11.5988 17.0083 12.7193L17.0082 12.7193Z" fill="#797474"/>
</svg>
