<svg width="24" height="24" viewBox="0 0 24 24" fill="none" xmlns="http://www.w3.org/2000/svg">
<path fill-rule="evenodd" clip-rule="evenodd" d="M13.3592 14.4687C13.1623 14.8401 13.0934 15.2593 13.073 15.6748C13.0675 15.784 13.021 15.8372 12.9721 15.9284C12.9509 15.9677 12.9298 16.0088 12.9088 16.048C12.8761 16.1077 12.8423 16.1356 12.8236 16.2081C12.8103 16.2594 12.7971 16.2962 12.7897 16.3494C12.7854 16.3838 12.7782 16.4146 12.7752 16.4502C12.7709 16.4967 12.7716 16.5414 12.7661 16.5879C12.7625 16.6223 12.7613 16.6538 12.7589 16.6882C12.7565 16.7171 12.7486 16.7503 12.7438 16.7799C12.7359 16.8307 12.7214 16.8851 12.7105 16.9357C12.7038 16.9658 12.6954 16.9925 12.6894 17.0238C12.6809 17.0643 12.6742 17.0999 12.6634 17.1403C12.641 17.2219 12.6422 17.3403 12.6398 17.4265C12.6398 17.4362 12.638 17.4453 12.6422 17.4537C12.6538 17.4525 12.6526 17.4326 12.6531 17.4241C12.6615 17.3161 12.6524 17.2364 12.6844 17.1276C12.6989 17.0775 12.7056 17.0244 12.7207 16.9736C12.7298 16.9428 12.7371 16.9084 12.7455 16.8764C12.7588 16.8244 12.7684 16.7719 12.7794 16.7199C12.7861 16.6873 12.7873 16.6415 12.7914 16.607C12.7951 16.5769 12.7981 16.5545 12.8005 16.5243C12.8048 16.4675 12.8097 16.4313 12.8222 16.3757C12.8295 16.3431 12.8331 16.319 12.8446 16.2857C12.8778 16.1928 12.8759 16.1866 12.9418 16.1112C12.9635 16.0865 13.0191 16.0164 13.0499 16.0116C13.0747 16.0073 13.0704 16.0496 13.0711 16.0665C13.0802 16.3515 13.1103 16.6366 13.1538 16.9187C13.2499 17.336 13.3127 17.5002 13.3356 17.6077L13.4812 17.7798C13.6467 17.9786 13.5216 18.0426 13.7366 18.132C13.8097 18.1621 13.8834 18.19 13.9563 18.2183C14.0668 18.2607 14.108 18.26 14.1563 18.3349C14.3194 18.3161 14.5464 18.2799 14.6889 18.2153C14.9323 18.1053 15.2016 18.0492 15.4952 18.2141C15.7893 18.3789 15.8612 18.6725 16.1469 18.6725C16.2798 18.6713 16.4241 18.7812 16.5575 18.751C16.7351 18.7117 16.9138 18.673 17.0926 18.6628C17.1518 18.6598 17.2115 18.6604 17.2714 18.6653C17.8602 18.9225 18.4877 18.8017 19.091 18.7293C18.6326 18.8017 18.0776 18.9642 17.6193 18.8924C17.6917 18.989 17.7401 19.1641 17.8609 19.236C17.6441 19.2602 17.5957 19.0192 17.4991 18.8984C17.4508 18.8501 17.4026 18.826 17.3596 18.8248C17.2962 18.8175 17.2261 18.8211 17.1706 18.8163C17.1042 18.8163 17.0383 18.8206 17.0154 18.8363C16.9925 18.8519 17.0209 18.907 17.0613 18.9674C17.1018 19.0283 17.1531 19.0947 17.1749 19.1347C17.1852 19.2367 17.2468 19.3787 17.2637 19.4837C17.2752 19.6069 17.2425 19.6661 17.2377 19.6322C17.2334 19.5978 17.2154 19.5073 17.1961 19.4197C17.1768 19.3328 17.1556 19.2493 17.1453 19.2307C17.1241 19.1932 17.0952 19.1383 17.0512 19.1003C17.0071 19.0622 16.9044 18.9529 16.8791 18.9323C16.8537 18.9118 16.7866 18.8774 16.7866 18.8774C16.7395 18.8889 16.3814 18.9753 16.3609 18.9879C16.3344 19.0036 16.37 19.0399 16.3826 19.055C16.4122 19.0894 16.4509 19.1269 16.4834 19.1595C16.5112 19.1878 16.5414 19.2144 16.5698 19.2434C16.6139 19.2875 16.6591 19.3291 16.7027 19.3745C16.7371 19.4114 16.7775 19.4506 16.8156 19.4838C16.8555 19.5195 16.8971 19.5346 16.9376 19.5647C16.9648 19.5847 16.9612 19.6022 16.9321 19.5864C16.9008 19.5695 16.8626 19.5489 16.8325 19.5303C16.7968 19.5079 16.7431 19.4566 16.7099 19.4264C16.664 19.3847 16.6218 19.346 16.574 19.3062C16.5383 19.2766 16.5094 19.2507 16.4719 19.2229C16.3922 19.1637 16.3602 19.1276 16.2594 19.0992C16.2177 19.0877 16.1881 19.0792 16.1453 19.0708C16.1272 19.0672 16.1078 19.0629 16.0904 19.0563C16.0783 19.052 16.0735 19.0539 16.0716 19.069C16.068 19.1011 16.0861 19.1343 16.1084 19.1554C16.1592 19.2031 16.2334 19.2188 16.2685 19.2847C16.0752 19.3088 16.0028 19.1155 15.8802 19.0219C15.8446 18.9875 15.7679 18.9132 15.6888 18.8395C15.6104 18.7658 15.5295 18.6922 15.4853 18.6578C15.3972 18.5889 15.2751 18.5068 15.1495 18.5068C15.0234 18.5068 14.7842 18.6095 14.7842 18.6095L14.6761 18.6488C14.7812 18.676 14.7981 18.7147 14.8935 18.8179C15.0402 18.9773 15.1464 18.8396 15.3156 18.8904C15.3669 18.9073 15.4467 18.9864 15.4968 19.0112C15.5469 19.036 15.6296 19.1597 15.678 19.1924C15.942 19.4732 16.0518 19.6718 16.4378 19.7202C16.5102 19.7323 16.5766 19.7577 16.6389 19.7927C16.8255 19.8978 16.9747 20.088 17.1378 20.2511C17.011 20.227 16.9778 20.1804 16.8606 20.1002C16.8021 20.0603 16.6921 19.9112 16.6293 19.8906C16.5375 19.8531 16.4741 19.8538 16.3787 19.8641C16.3286 19.8696 16.2718 19.8429 16.2283 19.82C16.1872 19.7983 16.1679 19.7777 16.1323 19.7517C16.119 19.7426 16.0846 19.7197 16.0731 19.7426C16.061 19.7662 16.1142 19.8223 16.1292 19.8405C16.154 19.8706 16.1896 19.9033 16.2173 19.9322C16.2493 19.9661 16.271 19.9883 16.3079 20.0179C16.3338 20.0384 16.3592 20.0656 16.3851 20.0887C16.422 20.1213 16.4571 20.1515 16.4915 20.1866C16.5144 20.2095 16.5326 20.2265 16.5543 20.2518C16.6243 20.3327 16.6763 20.3726 16.7131 20.4801C16.7259 20.517 16.7295 20.5562 16.7415 20.5942C16.7554 20.6395 16.7704 20.6848 16.794 20.7266C16.8145 20.7629 16.7813 20.6558 16.8 20.7078C16.8037 20.7187 16.8145 20.7537 16.7946 20.755C16.7765 20.7562 16.7522 20.6964 16.7457 20.6825C16.7276 20.6421 16.71 20.5865 16.6997 20.5429C16.6738 20.4342 16.6212 20.3853 16.5421 20.3134C16.5149 20.2886 16.4937 20.2687 16.4642 20.2458C16.3941 20.1921 16.3204 20.1449 16.2504 20.09C15.9979 19.8925 15.7835 19.6551 15.5433 19.4457C15.498 19.4058 15.4515 19.3672 15.4025 19.3316C15.3379 19.2839 15.3977 19.3008 15.3228 19.2682C15.2485 19.2042 15.1042 19.1619 15.033 19.1595C14.9623 19.157 14.8354 19.1347 14.7702 19.0918C14.7195 19.0579 14.5625 18.9746 14.5262 18.9547C14.4978 18.939 14.2865 18.8943 14.2109 18.8562C14.1994 18.8889 14.4085 18.9958 14.4259 19.0144C14.4651 19.0561 14.514 19.0948 14.5563 19.1297C14.6209 19.1822 14.6856 19.2337 14.7515 19.2849C14.8076 19.3297 14.8632 19.3743 14.9187 19.4214C14.9659 19.4794 15.0383 19.5278 15.0867 19.576C15.2636 19.8176 15.3651 20.1014 15.5209 20.3495C15.551 20.3948 15.7909 20.5421 15.8585 20.5856C15.8948 20.6085 15.9304 20.6244 15.9666 20.6502C15.9979 20.6726 16.0275 20.6901 16.0583 20.7135C16.0928 20.7401 16.1291 20.7595 16.1659 20.7812C16.196 20.7993 16.2263 20.8252 16.2528 20.8483C16.2975 20.8851 16.3356 20.9214 16.3736 20.9648C16.4063 21.0016 16.4412 21.0367 16.4757 21.0723C16.4872 21.0844 16.5361 21.1431 16.5342 21.1563C16.5323 21.1763 16.5065 21.1539 16.5003 21.1484C16.4822 21.1303 16.4683 21.1104 16.449 21.0923C16.4086 21.0536 16.3705 21.0156 16.3306 20.9758C16.2914 20.9359 16.1923 20.8581 16.1434 20.8345C16.0999 20.814 16.0606 20.7977 16.019 20.7729C15.9918 20.7565 15.958 20.7409 15.929 20.7269C15.8963 20.7113 15.8462 20.698 15.81 20.6853C15.6657 20.5887 15.4724 20.5404 15.3516 20.396C15.3153 20.3513 15.284 20.3055 15.2556 20.2583C15.1124 20.021 15.0412 19.7553 14.8165 19.5686C14.7641 19.5239 14.7102 19.481 14.6572 19.4382C14.5503 19.353 14.4416 19.2714 14.3316 19.1941C14.2748 19.1549 14.2175 19.1162 14.1583 19.0812C14.1239 19.0632 14.0876 19.048 14.0544 19.0263C13.9396 18.9515 13.8895 18.8947 13.7591 18.853L13.7494 18.8499C13.6293 18.8095 13.5978 18.6942 13.503 18.6331C13.4939 18.6271 13.4963 18.6355 13.4987 18.6428C13.5054 18.6644 13.515 18.682 13.5216 18.7061C13.5252 18.7194 13.5488 18.7978 13.5433 18.8057C13.5306 18.8033 13.4836 18.7326 13.4678 18.7164C13.4442 18.6916 13.4116 18.6687 13.3857 18.6445C13.3397 18.6022 13.2945 18.5503 13.2583 18.4989C13.2275 18.4548 13.1919 18.3969 13.1666 18.3492C13.1388 18.2979 13.1128 18.2115 13.1056 18.1535C13.1013 18.1172 13.0941 18.0828 13.0899 18.046C13.0869 18.017 13.076 17.9801 13.0688 17.9518C13.076 17.9881 13.0857 18.0146 13.0887 18.0533C13.0918 18.0872 13.0984 18.1186 13.1015 18.1518C13.1087 18.229 13.1371 18.3202 13.1739 18.3885C13.2004 18.4374 13.2228 18.4846 13.2524 18.5323C13.2941 18.5999 13.334 18.6658 13.3961 18.7176C13.4457 18.7593 13.4758 18.8124 13.5073 18.8685C13.5188 18.8878 13.529 18.9073 13.5405 18.9265C13.5833 18.9997 13.6305 19.0654 13.7078 19.0909C13.8081 19.1277 13.8575 19.1826 13.9022 19.2437C13.947 19.3041 13.9874 19.3693 14.069 19.4273C14.2175 19.5517 14.3866 19.6725 14.5298 19.8047C14.5866 19.8627 14.6337 19.9267 14.6747 19.9925C14.7091 20.0481 14.7387 20.1054 14.7665 20.164C14.7942 20.2226 14.8196 20.2818 14.8456 20.341C14.9102 20.4745 14.9912 20.6315 15.0817 20.748C15.0974 20.7679 15.1361 20.7969 15.1566 20.8168C15.1814 20.8404 15.2043 20.8669 15.2285 20.8917C15.2545 20.9182 15.2738 20.943 15.3034 20.9665C15.345 20.9992 15.3855 21.0348 15.4271 21.0686C15.4536 21.091 15.4772 21.1139 15.5032 21.1369C15.5371 21.167 15.5691 21.1925 15.6004 21.2257C15.612 21.2378 15.6294 21.2558 15.6409 21.2656C15.6349 21.2572 15.6077 21.2312 15.5986 21.2209C15.5986 21.2209 15.5454 21.1653 15.5599 21.1792C15.5961 21.2136 15.6294 21.2511 15.6655 21.2868C15.6728 21.294 15.7199 21.3375 15.6963 21.3453C15.6788 21.3513 15.6196 21.2952 15.6051 21.2819C15.5779 21.2572 15.555 21.2348 15.5254 21.2112C15.5158 21.2033 15.4409 21.1472 15.4415 21.1429C15.4421 21.1381 15.3274 21.0541 15.3153 21.0464C15.2941 21.0319 15.2682 21.0144 15.2482 20.9992C15.2217 20.9793 15.1909 20.9479 15.1642 20.9244C15.1195 20.8844 15.1074 20.8682 15.0519 20.8398C15.012 20.8199 14.9994 20.8097 14.9655 20.7801C14.8206 20.6545 14.7022 20.4993 14.585 20.3483C14.5511 20.2915 14.5185 20.233 14.4853 20.1762C14.3506 19.9485 14.2009 19.745 13.9756 19.745C13.7667 19.7293 13.804 19.9919 13.8736 20.2547C13.8911 20.3206 13.9104 20.3858 13.9297 20.4473C13.9496 20.5082 13.9732 20.5638 13.9942 20.6098C13.9326 20.5402 13.8547 20.469 13.8299 20.3972C13.8099 20.3411 13.7936 20.2836 13.7798 20.2268C13.7103 19.9406 13.697 19.649 13.5177 19.4061C13.464 19.3264 13.4012 19.2528 13.3251 19.1881C13.2986 19.1645 13.2907 19.1537 13.2864 19.1186C13.2821 19.0781 13.258 19.0914 13.2501 19.127C13.247 19.1415 13.2453 19.1609 13.2453 19.1759C13.2453 19.1759 13.2405 19.0793 13.235 19.1138C13.229 19.1494 13.2369 19.2141 13.2453 19.2497C13.2568 19.2962 13.2706 19.3445 13.2833 19.391C13.2954 19.4375 13.3123 19.4913 13.3305 19.5354C13.3425 19.5655 13.3528 19.5958 13.3644 19.6254C13.3728 19.6465 13.3824 19.667 13.3903 19.6894C13.3994 19.7129 13.406 19.7298 13.4139 19.7546C13.426 19.7969 13.4368 19.8167 13.4544 19.8561C13.4568 19.8621 13.4809 19.911 13.4616 19.9081C13.452 19.9069 13.4289 19.8556 13.4236 19.8453C13.4072 19.8133 13.3982 19.7904 13.3873 19.7553C13.3728 19.7093 13.3468 19.6592 13.3281 19.614C13.3093 19.5687 13.2888 19.5288 13.2725 19.4829C13.2598 19.4472 13.2465 19.4146 13.2344 19.3777C13.2157 19.3204 13.1892 19.2678 13.1735 19.208C13.1627 19.1688 13.153 19.1283 13.1422 19.0884C13.1258 19.0292 13.1071 19.0148 13.0685 18.9712C13.0498 18.9501 13.0685 18.9628 13.0582 18.9465C13.0093 18.8728 12.9229 18.7955 12.8529 18.7405C12.8185 18.7133 12.7997 18.6952 12.7701 18.6644C12.7236 18.6161 12.6784 18.5679 12.6402 18.5123C12.6113 18.4699 12.5901 18.4307 12.5659 18.3861C12.5466 18.351 12.5919 18.4495 12.5919 18.4495C12.6251 18.5183 12.6571 18.5751 12.6999 18.6384C12.7265 18.6771 12.7512 18.7157 12.7784 18.7544C12.7917 18.7737 12.8104 18.7997 12.8159 18.8227C12.8552 18.9883 12.918 19.1567 12.9875 19.312C13.0116 19.3657 13.0364 19.4183 13.0623 19.4708C13.1167 19.5837 13.156 19.7033 13.1873 19.8253C13.2036 19.8869 13.2174 19.9485 13.2314 20.0107C13.3231 20.3495 13.1298 20.8314 13.7574 21.0005C13.8432 21.0234 13.8782 21.0549 13.854 21.0971C13.7936 21.1031 13.7291 21.1043 13.6632 21.0995C13.5979 21.094 13.532 21.082 13.4699 21.0615C13.4083 21.0434 13.3479 21.0155 13.2966 20.9782C13.2453 20.9401 13.2024 20.8925 13.1789 20.8321C13.162 20.7922 13.1589 20.7589 13.1076 20.7873C13.0684 20.809 12.9428 20.9334 12.9162 20.9734C12.8806 21.0277 12.8443 21.1189 12.8341 21.1823C12.8274 21.2282 12.8262 21.274 12.819 21.3188C12.8178 21.3279 12.8123 21.3616 12.7979 21.3568C12.7875 21.3532 12.7936 21.3121 12.7942 21.3019C12.8003 21.2126 12.7979 21.1611 12.8269 21.0735C12.8529 20.9963 12.8686 20.9546 12.9187 20.8894C12.9555 20.8417 12.9815 20.8073 13.0111 20.7541C13.0443 20.6932 13.0715 20.6436 13.0636 20.5717C13.0503 20.4504 13.0328 20.332 13.0068 20.2124C12.9464 19.9334 12.8836 19.6646 12.717 19.4266C12.6801 19.3674 12.6414 19.3125 12.5992 19.2642C12.5992 19.3487 12.5992 19.4394 12.5877 19.5299C12.575 19.6259 12.575 19.7225 12.5025 19.7951C12.5013 19.6875 12.4452 19.5994 12.3957 19.5077C12.3733 19.466 12.3545 19.4569 12.3408 19.4037C12.3251 19.3445 12.3287 19.3022 12.3426 19.2437C12.3716 19.126 12.3643 19.0389 12.3149 18.9279C12.301 18.8965 12.2798 18.8639 12.2636 18.8319C12.2461 18.7974 12.2364 18.7769 12.222 18.7401C12.1924 18.6628 12.1784 18.5832 12.1531 18.5045C12.1416 18.4689 12.1338 18.4362 12.1204 18.4001C12.1072 18.3644 12.0963 18.3264 12.0829 18.2896C12.0661 18.2431 12.0576 18.1887 12.0437 18.1404C12.0606 18.1953 12.0685 18.246 12.089 18.3016C12.1029 18.3397 12.1149 18.3784 12.1289 18.4164C12.1409 18.4496 12.15 18.4859 12.1616 18.5197C12.1791 18.5716 12.1905 18.6272 12.208 18.6802C12.2183 18.7104 12.2285 18.7419 12.2425 18.7708C12.2509 18.7889 12.2316 18.7455 12.2316 18.7448C12.2056 18.6789 12.1905 18.6198 12.1724 18.5522C12.1633 18.5183 12.1512 18.4851 12.1411 18.4514C12.1314 18.4187 12.1182 18.3843 12.1072 18.3517C12.0939 18.3125 12.0807 18.2781 12.0704 18.2382C12.0607 18.2001 12.0516 18.1645 12.0414 18.1265C12.0185 18.0461 12.0166 17.9253 12.0149 17.8402C12.013 17.7647 12.0113 17.6886 12.0113 17.6131C12.0113 17.5522 12.0245 17.4863 12.0282 17.4247C12.0318 17.3686 12.0414 17.313 12.0426 17.2567C12.0426 17.2488 12.0433 17.2452 12.0414 17.238C12.0323 17.2398 12.0347 17.2435 12.0335 17.2543C12.0287 17.296 12.0268 17.3359 12.0208 17.3775C12.016 17.4168 12.0153 17.4548 12.0093 17.4952C12.002 17.546 11.9978 17.5913 11.9984 17.6426C11.9984 17.7682 11.9966 17.9053 12.0063 18.0296C12.0106 18.0792 12.0172 18.1088 12.0299 18.1565C12.0444 18.2096 12.0516 18.2568 12.0704 18.3098C12.0836 18.3478 12.0957 18.3871 12.1084 18.4258C12.1187 18.4578 12.1265 18.491 12.1368 18.5237C12.1537 18.5762 12.1633 18.6342 12.1796 18.6886C12.2001 18.7574 12.2171 18.8009 12.2497 18.8655C12.2721 18.909 12.2865 18.9326 12.2998 18.9808C12.3275 19.0804 12.3197 19.1463 12.2846 19.2417C12.2647 19.2942 12.2617 19.3269 12.2533 19.3812C12.243 19.452 12.2256 19.4556 12.1917 19.5141C12.1482 19.5896 12.1198 19.6674 12.1005 19.7521C12.089 19.8028 12.0805 19.8548 12.0752 19.9078C12.074 19.9942 12.0704 20.0039 12.118 20.0775C12.1681 20.1555 12.2449 20.2249 12.307 20.2944C12.3414 20.3336 12.3837 20.4085 12.4018 20.4575C12.4121 20.4859 12.423 20.5124 12.4326 20.5415C12.4519 20.5982 12.4779 20.6544 12.4991 20.7111C12.5082 20.7359 12.525 20.7691 12.5378 20.7927C12.551 20.8187 12.5625 20.8362 12.5746 20.8646C12.5794 20.8761 12.5999 20.9207 12.5982 20.9292C12.5945 20.9467 12.5782 20.9232 12.5746 20.9171C12.5565 20.8844 12.5445 20.8526 12.5245 20.8192C12.5112 20.7981 12.4968 20.7697 12.4846 20.7473C12.4731 20.7261 12.4634 20.699 12.4532 20.6766C12.4309 20.6282 12.4109 20.5806 12.3911 20.531C12.3495 20.429 12.3054 20.3577 12.2123 20.2949C12.1936 20.2822 12.0879 20.2056 12.0782 20.2562C12.0752 20.2719 12.077 20.3455 12.0764 20.3673C12.0745 20.5431 12.0655 20.7219 12.0256 20.8934C12.0112 20.955 11.9912 21.1295 11.9712 21.1887C11.9103 21.3137 11.8747 21.4001 11.8021 21.4121C11.8745 21.2672 11.8504 21.0987 11.8938 20.9501C11.9035 20.8764 11.909 20.8027 11.9107 20.7291C11.9167 20.5062 11.8932 20.3021 11.8654 20.0824C11.8612 20.0485 11.8636 20.0262 11.8558 19.9906C11.8498 19.9622 11.8455 19.9423 11.8419 19.9133C11.8286 19.818 11.8147 19.7225 11.8026 19.6271C11.7995 19.5588 11.799 19.4907 11.8026 19.4218C11.8062 19.3535 11.8135 19.2853 11.8255 19.217C11.7682 19.2654 11.7144 19.3161 11.6631 19.3692C11.6118 19.4223 11.5634 19.4773 11.5163 19.5347C11.4704 19.6006 11.4221 19.6652 11.3731 19.7285C11.3303 19.7841 11.3163 19.7925 11.3182 19.8662C11.3194 19.9218 11.3363 19.9767 11.3495 20.0305C11.3719 20.1193 11.3984 20.1875 11.4437 20.2678C11.4649 20.3059 11.48 20.3487 11.4872 20.3911C11.5017 20.478 11.5017 20.5964 11.5024 20.6864C11.5024 20.7148 11.4981 20.7535 11.4957 20.7829C11.492 20.8204 11.4866 20.8549 11.4841 20.8934C11.4805 20.9538 11.4799 20.9998 11.4938 21.0595C11.5046 21.1072 11.5301 21.1488 11.5354 21.199C11.5373 21.2154 11.5275 21.219 11.5215 21.1997C11.5119 21.1665 11.5064 21.1478 11.4931 21.1145C11.4695 21.0578 11.4611 20.9949 11.4618 20.934C11.463 20.8585 11.4738 20.7872 11.4769 20.713C11.4788 20.6719 11.4745 20.611 11.4721 20.5686C11.4678 20.4967 11.4624 20.3995 11.431 20.3355C11.4183 20.3095 11.4117 20.2986 11.3953 20.2745C11.3494 20.205 11.3181 20.1417 11.2812 20.068C11.2692 20.0445 11.2129 19.9436 11.1785 19.9653C11.158 19.9786 11.0632 20.0994 11.0433 20.1266C11.004 20.1803 11.0033 20.1875 11.0028 20.2527C11.0021 20.292 11.0167 20.3911 11.0252 20.4303C11.0343 20.472 11.0463 20.5095 11.0536 20.5511C11.0591 20.5812 11.0663 20.6115 11.0716 20.6423C11.0783 20.6755 11.0904 20.702 11.0957 20.7383C11.1018 20.7795 11.109 20.8156 11.1121 20.8573C11.1152 20.8912 11.1212 20.9225 11.1236 20.9569C11.1296 21.0433 11.1296 21.1405 11.1284 21.2274C11.1284 21.2341 11.1303 21.2674 11.1169 21.2607C11.1042 21.254 11.1049 21.1749 11.1049 21.1579C11.1024 21.0674 11.1006 20.9798 11.0837 20.8903C11.077 20.8565 11.0746 20.8258 11.0668 20.7912C11.0572 20.7508 11.0536 20.7248 11.0372 20.6861C11.0264 20.6596 11.0191 20.6324 11.01 20.6052C10.998 20.5696 10.9907 20.5443 10.9744 20.5092C10.9641 20.4868 10.9243 20.3878 10.8977 20.3884C10.8784 20.3891 10.8536 20.4567 10.8464 20.4741C10.6954 20.837 10.6827 21.2291 10.7872 21.6065C10.6784 21.5944 10.6591 21.482 10.6302 21.4072C10.6018 21.3323 10.6001 21.206 10.5819 21.1299C10.5124 20.8303 10.5215 20.5206 10.6591 20.2433C10.6845 20.1697 10.7153 20.0978 10.7521 20.0277C10.7884 19.9577 10.8306 19.8888 10.8782 19.8229C10.9163 19.7534 10.9543 19.6846 10.9906 19.6152C11.0269 19.5457 11.0625 19.4763 11.0945 19.4068C11.1181 19.3495 11.1398 19.2915 11.1591 19.2328C11.1839 19.1465 11.2032 19.0571 11.2388 18.9689C11.2708 18.8988 11.2913 18.8904 11.2931 18.8045C11.2944 18.7545 11.2889 18.708 11.2925 18.6566C11.298 18.5774 11.3016 18.5128 11.3245 18.4361C11.345 18.3666 11.3584 18.3014 11.3842 18.2332C11.4102 18.1656 11.4047 18.1179 11.4198 18.0508C11.4314 18.0019 11.4319 17.9704 11.4355 17.9222C11.4391 17.8733 11.4603 17.7839 11.4802 17.7386C11.5014 17.6933 11.5159 17.6722 11.5448 17.6317C11.5737 17.5913 11.6009 17.5297 11.6107 17.4808C11.615 17.4584 11.6191 17.4336 11.6227 17.4113C11.6415 17.3062 11.6355 17.1981 11.6391 17.0919C11.6415 17.0115 11.6771 16.9215 11.705 16.8461C11.7273 16.7845 11.7249 16.7241 11.7339 16.6608C11.7508 16.5375 11.746 16.4011 11.7478 16.2761C11.7478 16.2549 11.7418 16.2586 11.7406 16.2754C11.737 16.3364 11.7382 16.4047 11.737 16.4663C11.7358 16.5387 11.7327 16.5986 11.7225 16.6704C11.7134 16.7387 11.7177 16.7857 11.6905 16.8533C11.6669 16.9125 11.6356 17.0025 11.6289 17.0647C11.6241 17.1082 11.6253 17.1638 11.6241 17.2096C11.6217 17.2875 11.6186 17.3552 11.6029 17.4324C11.5909 17.4916 11.5926 17.5044 11.5649 17.561C11.5486 17.5942 11.542 17.6069 11.5196 17.6359C11.4797 17.6872 11.4501 17.7476 11.4339 17.8111C11.4212 17.8618 11.414 17.8859 11.4098 17.9396C11.4055 17.9897 11.3995 18.0157 11.3881 18.0634C11.3761 18.1129 11.3778 18.1539 11.3585 18.2047C11.3501 18.227 11.3404 18.2482 11.332 18.2706C11.3115 18.3255 11.2952 18.3793 11.2747 18.4342C11.2518 18.4958 11.2433 18.5411 11.2294 18.6039C11.2234 18.634 11.2149 18.6619 11.2089 18.692C11.1969 18.7536 11.1908 18.8182 11.1552 18.8726C11.1419 18.8931 11.1365 18.9046 11.1263 18.9263C11.1142 18.9511 11.0998 18.9734 11.0846 18.9958C11.0285 19.0798 10.9759 19.1546 10.9198 19.2241C10.8774 19.2634 10.8358 19.3026 10.7953 19.3437C10.7549 19.3842 10.7162 19.4265 10.6782 19.4694C10.6202 19.5207 10.5713 19.5769 10.5265 19.6366C10.4818 19.6964 10.442 19.7592 10.4033 19.8232C10.3261 19.9633 10.2536 20.1324 10.1333 20.2532C10.1574 20.1324 10.1581 20.0183 10.2118 19.9211C10.2547 19.8318 10.3206 19.607 10.3084 19.499C10.2425 19.4742 10.1967 19.6186 10.1356 19.6263C10.054 19.6475 9.96953 19.7804 9.90431 19.8189C9.83842 19.8576 9.58368 20.0201 9.52984 20.0719C9.20064 20.4228 9.24055 20.6873 8.87814 21.025C8.9747 20.6149 9.1922 20.1082 9.53947 19.8341C9.6059 19.7869 9.673 19.7411 9.73755 19.6964C9.80211 19.6517 9.86492 19.6071 9.92291 19.5635C9.9809 19.5152 10.0317 19.4651 10.0726 19.4114C10.1263 19.3577 10.1723 19.3027 10.2091 19.2459C10.2538 19.1855 10.3033 19.1306 10.4029 19.0937C10.5437 19.0454 10.5883 18.866 10.6783 18.7568C10.6946 18.7368 10.7079 18.7254 10.7254 18.7072C10.7738 18.6564 10.7671 18.5919 10.7937 18.5279C10.813 18.4814 10.8698 18.4191 10.9025 18.3757C10.9429 18.322 10.9622 18.3112 10.9834 18.2434C10.9925 18.2145 11.0045 18.1854 11.0135 18.1565C11.0255 18.1173 11.002 18.1148 10.9834 18.1468C10.9562 18.1921 10.9471 18.2489 10.9126 18.2881C10.8939 18.3093 10.8722 18.3305 10.8529 18.3522C10.8058 18.4047 10.7497 18.4451 10.7068 18.5007C10.6729 18.5442 10.6531 18.5835 10.612 18.6232C10.5672 18.6661 10.5359 18.7029 10.4967 18.7501C10.4574 18.7965 10.4223 18.8322 10.3626 18.8521L10.353 18.8552C10.2225 18.8968 10.1717 18.9536 10.0576 19.0285C10.0244 19.0502 9.98813 19.0653 9.95251 19.0846C9.89398 19.119 9.83652 19.1571 9.78041 19.1963C9.72791 19.235 9.67594 19.2736 9.62465 19.3123C9.56063 19.3564 9.49782 19.4016 9.43621 19.4488C9.14639 19.6704 8.87276 19.9114 8.59916 20.153C8.56233 20.1856 8.52603 20.2273 8.49041 20.2629C8.44809 20.3058 8.40523 20.3481 8.36237 20.3903C8.33947 20.4126 8.29353 20.4694 8.27719 20.4972C8.25724 20.531 8.24706 20.5612 8.23193 20.5968C8.20594 20.6577 8.18786 20.7152 8.16978 20.7785C8.16737 20.7876 8.14862 20.8582 8.12933 20.8365C8.12023 20.8262 8.14259 20.7484 8.14621 20.7338C8.16067 20.6765 8.17755 20.6239 8.19871 20.5683C8.21625 20.5223 8.22228 20.497 8.25 20.453C8.26634 20.4276 8.29045 20.398 8.3092 20.3738C8.3321 20.3449 8.36652 20.3122 8.39251 20.2838C8.43965 20.2325 8.47768 20.1909 8.51746 20.1334C8.64858 19.948 8.80795 19.7469 8.97469 19.5935C9.03443 19.5386 9.0967 19.4884 9.16313 19.4419C9.21871 19.4027 9.27603 19.3671 9.33644 19.3351C9.38479 19.2867 9.40889 19.2143 9.43005 19.1726C9.43916 19.1437 9.44037 19.1098 9.42162 19.0862C9.38291 19.0361 9.32679 19.1103 9.29117 19.1334C9.22286 19.1786 9.15349 19.1993 9.08345 19.2234C8.73617 19.4414 8.39008 19.6987 8.14796 20.0344C8.128 20.0621 8.10805 20.1003 8.09064 20.1298C8.07858 20.1497 8.06894 20.1697 8.05675 20.1902C8.02662 20.2397 7.99515 20.2862 7.96863 20.3375C7.95055 20.3707 7.93595 20.3979 7.91974 20.4329C7.9034 20.4685 7.88291 20.5053 7.86537 20.5416C7.85211 20.5681 7.83939 20.5888 7.82854 20.6177C7.80617 20.675 7.78086 20.7438 7.77055 20.8037C7.76626 20.8273 7.76211 20.8496 7.75783 20.8726C7.75475 20.887 7.76385 20.8538 7.76385 20.8538C7.76934 20.8302 7.77296 20.8055 7.77899 20.7819C7.77417 20.8036 7.76332 20.8882 7.7439 20.8972C7.71979 20.9087 7.73305 20.8416 7.73426 20.832C7.74028 20.7831 7.74457 20.7559 7.75903 20.7076C7.77711 20.6459 7.79104 20.594 7.81823 20.5355C7.83149 20.5071 7.84301 20.4733 7.85627 20.4437C7.87381 20.4038 7.88587 20.3652 7.90462 20.3253C7.91788 20.2964 7.92698 20.2722 7.94332 20.2425C7.9681 20.1973 7.98859 20.1605 8.00787 20.1121C8.02301 20.0741 8.0356 20.0445 8.04832 20.0058C8.06881 19.9417 8.08221 19.8838 8.08221 19.8161C7.88895 19.8325 7.65885 19.8626 7.48073 19.9399C7.39743 19.9762 7.32551 20.0359 7.25667 20.0951C7.22225 20.1247 7.19265 20.1519 7.15636 20.1803C7.12863 20.2014 7.10265 20.2214 7.07546 20.2436C6.9939 20.3119 6.9335 20.3608 6.87859 20.455C6.85448 20.4966 6.84899 20.551 6.82903 20.5823C6.81698 20.6011 6.79769 20.6028 6.80613 20.572C6.81524 20.5412 6.82247 20.5068 6.83211 20.4772C6.84899 20.4235 6.89975 20.3498 6.93778 20.3075C6.97528 20.2659 7.01988 20.2211 7.06033 20.1826C7.07908 20.1645 7.09836 20.1481 7.11711 20.1301C7.15635 20.092 7.19439 20.0473 7.23242 20.0068C7.28733 19.9501 7.33809 19.9 7.3997 19.8504C7.49264 19.7755 7.59778 19.6995 7.71738 19.6752C7.72648 19.6734 7.73492 19.6722 7.74389 19.6709C8.20233 19.6468 8.4438 19.3092 8.80795 19.1117C8.8575 19.0876 8.90827 19.0669 8.95956 19.0501C9.12992 18.9993 9.20532 19.0077 9.35278 18.8477C9.45484 18.7372 9.58475 18.7608 9.69524 18.7245L9.36846 18.6092C9.36846 18.6092 9.12926 18.5065 9.00311 18.5065C8.87695 18.5065 8.75547 18.5886 8.66735 18.6574C8.57922 18.7257 8.34431 18.9527 8.27237 19.021C8.20113 19.0898 8.1588 19.1447 8.08219 19.2136C8.00612 19.2831 7.85639 19.2957 7.88961 19.2884C7.90648 19.2848 7.97358 19.2189 8.02608 19.1561C8.07858 19.094 8.11782 19.0353 8.07858 19.0474C8.0013 19.0715 7.89804 19.0196 7.82921 18.9961C7.79479 18.984 7.67827 18.9538 7.57139 18.9272C7.33648 18.7871 7.18554 18.9985 7.03756 19.1518C6.98801 19.2031 6.9548 19.2472 6.91435 19.3059C6.89319 19.3372 6.8739 19.3626 6.85462 19.3952C6.8214 19.4513 6.78337 19.5009 6.74171 19.5497C6.72417 19.5697 6.71278 19.5842 6.69283 19.6034C6.64756 19.6482 6.60711 19.6928 6.5593 19.7358C6.53037 19.7618 6.45538 19.8349 6.43729 19.8662C6.42939 19.8789 6.38894 19.9701 6.37328 19.9514C6.36658 19.9435 6.38479 19.9158 6.38894 19.9073C6.41854 19.8476 6.41546 19.8457 6.4626 19.7944C6.49153 19.7624 6.51752 19.7352 6.54899 19.7056C6.59251 19.6645 6.63417 19.6144 6.67515 19.5704C6.71198 19.5311 6.76086 19.4592 6.78631 19.4122C6.81832 19.353 6.84551 19.2909 6.87564 19.2298C6.91488 19.1501 6.93055 19.1072 6.99283 19.0408C7.02243 19.0095 7.06354 18.9763 7.08886 18.9455C7.10212 18.9298 7.11296 18.9128 7.09314 18.8978C6.80332 18.7045 6.44761 18.8314 6.30255 19.1931C6.30014 19.222 6.25246 19.2776 6.23304 19.3024C6.20532 19.3375 6.18469 19.3604 6.15335 19.3912C6.11706 19.4268 6.08746 19.4648 6.04943 19.5005C6.00711 19.5409 5.96786 19.582 5.9238 19.6206C5.86581 19.6714 5.82657 19.7135 5.78666 19.78C5.78237 19.7872 5.73228 19.8796 5.71902 19.8543C5.71353 19.8434 5.74434 19.7963 5.75036 19.7848C5.78304 19.7263 5.80768 19.6876 5.85309 19.6375C5.8863 19.6006 5.92742 19.5662 5.96116 19.5282C5.99505 19.4895 6.02639 19.4563 6.05719 19.4146C6.07835 19.3857 6.09884 19.3573 6.12121 19.3282C6.15442 19.2847 6.18041 19.2353 6.19849 19.1839C6.21898 19.1222 6.24081 19.1011 6.27576 19.0479C6.30228 19.0075 6.33188 18.9598 6.33255 18.9102C5.99491 19.0068 5.47554 19.1156 5.16214 18.9947C5.23459 18.9947 5.30705 19.0431 5.40374 19.0189C6.12789 18.8981 6.82715 18.5363 7.5525 18.7416C7.61839 18.7561 7.68107 18.7706 7.74027 18.7833C7.85799 18.8093 7.9583 18.8292 8.02955 18.8292C8.31522 18.8292 8.44084 18.459 8.73495 18.2942C9.02905 18.1298 9.28702 18.1281 9.53034 18.2381C9.66266 18.2973 9.8136 18.2816 9.97246 18.3014C10.0201 18.2314 10.0612 18.2307 10.17 18.1897C10.2431 18.162 10.3168 18.1336 10.3898 18.1033C10.6047 18.014 10.6235 17.991 10.7895 17.7924C10.8487 17.5175 10.8988 17.6432 10.9061 17.3207L10.9537 16.9939C11.019 16.5705 11.0601 16.1423 11.0503 15.7142C11.0496 15.681 11.0467 15.6333 11.0938 15.667C11.1658 15.7183 11.2043 15.7679 11.2582 15.8355C11.2878 15.8724 11.3119 15.8935 11.3354 15.9383C11.3614 15.9866 11.3735 16.0191 11.3843 16.0735C11.3928 16.117 11.4055 16.1551 11.4127 16.1991C11.4182 16.2312 11.4272 16.2625 11.4351 16.294C11.4411 16.3169 11.4502 16.3392 11.4568 16.3635C11.4623 16.3828 11.4888 16.4686 11.4991 16.4764C11.5124 16.486 11.5087 16.4612 11.507 16.4559C11.4991 16.422 11.4853 16.3876 11.4769 16.3526C11.4702 16.3266 11.4617 16.3043 11.4557 16.2778C11.449 16.2464 11.4424 16.2246 11.4376 16.1914C11.4316 16.1466 11.4189 16.1045 11.4116 16.0585C11.3989 15.9752 11.3628 15.8997 11.3113 15.8333C11.2848 15.7988 11.2606 15.7565 11.2341 15.7197C11.2039 15.678 11.1731 15.6376 11.1483 15.5923C11.1103 15.5223 11.0716 15.4624 11.0444 15.3863C11.0312 15.3495 11.0245 15.3302 11.0191 15.2903C10.9871 15.0373 10.9279 14.7825 10.8198 14.5505C10.7897 14.4853 10.8905 14.51 10.9189 14.5216C10.9588 14.5372 11.0005 14.5651 11.0385 14.5875C11.091 14.6176 11.1285 14.6412 11.1769 14.678C11.1872 14.6859 11.2337 14.7239 11.244 14.7045C11.2519 14.69 11.2065 14.655 11.1956 14.6448C11.1316 14.5887 11.0609 14.5451 10.9951 14.4902C10.9492 14.4527 10.8907 14.4202 10.8387 14.3911C10.7735 14.3543 10.7674 14.361 10.7149 14.2975C10.6823 14.2583 10.6545 14.1846 10.6328 14.135C10.4329 13.6912 10.2004 13.3475 9.75054 13.1247C9.39363 12.9483 8.9799 12.8934 8.58496 12.8891C8.29019 12.8891 8.0692 12.8891 7.85427 12.955C6.78352 13.35 6.18136 14.0746 4.76091 13.8108C4.68725 13.8108 4.75542 13.7449 4.82921 13.7449C6.32935 14.0741 7.1869 12.8891 8.42201 12.6917C8.03736 12.4941 7.51611 12.4284 7.13685 12.2967C6.48514 12.4284 5.90177 12.4943 5.21698 12.2308C5.21149 12.1649 5.21149 12.1649 5.21149 12.1649C5.89642 12.4282 6.47979 12.3625 6.97854 12.1649C6.45366 11.8443 6.03582 11.381 5.85167 10.8412C5.79435 10.6727 5.87578 10.7403 5.93203 10.8467C6.00931 10.994 6.05525 11.1003 6.15248 11.2447C6.93515 12.4072 8.48363 12.513 9.79225 12.6235L9.81515 12.6259C9.50953 12.2062 9.19064 11.8064 8.92733 11.365C8.8838 11.2913 8.90978 11.3125 8.81804 11.2967C8.40863 11.2223 8.2455 11.1336 7.89527 10.9349C7.75398 10.8546 7.59206 10.8208 7.43201 10.8026C7.34991 10.793 7.2587 10.8069 7.1687 10.8019C7.07455 10.7971 6.93674 10.7851 6.84687 10.7536C6.68508 10.6896 6.54365 10.5652 6.44761 10.4335C6.40047 10.3676 6.58288 10.5404 6.58409 10.541C6.78578 10.6951 6.90472 10.698 7.14994 10.7228C7.25079 10.7331 7.46521 10.7439 7.45074 10.6099C7.4423 10.5319 7.31119 10.4438 7.24717 10.3726C7.05029 10.1516 6.87699 9.8568 6.76408 9.59657C6.86199 9.59537 6.8281 9.5809 6.8794 9.67265C7.04493 9.96863 7.243 10.2765 7.50566 10.5164C7.62767 10.6275 7.67481 10.6976 7.83178 10.7893C8.12535 10.9609 8.45749 11.0925 8.80169 11.1082C8.74972 10.9602 8.68329 10.811 8.62959 10.6601C8.53544 10.3949 8.4678 10.151 8.39521 9.88291C8.35289 9.72527 8.26477 9.7084 8.13673 9.60394C8.02262 9.50912 7.92472 9.39796 7.81731 9.30983C7.72731 9.23617 7.64334 9.20657 7.53767 9.15822C7.42718 9.10746 7.6416 9.15514 7.66089 9.1613C7.95258 9.26041 8.19057 9.54836 8.26959 9.57434C8.35477 9.60207 8.29852 9.38296 8.29196 9.33823C8.24428 9.03863 8.17236 8.74574 8.17357 8.44625C8.17357 8.39549 8.16687 8.34781 8.23277 8.37259C8.26049 8.4717 8.29866 8.60455 8.31245 8.71264C8.34379 8.95304 8.40125 9.17402 8.44049 9.4108C8.45924 9.5249 8.48094 9.65053 8.56973 9.74415C8.65906 9.82986 8.73888 9.64812 8.76661 9.59803C8.84268 9.29308 8.8862 9.51285 8.98879 9.21876C8.97674 9.10519 9.05281 8.95064 9.0275 9.15716C9.02683 9.43131 8.90911 9.29483 8.86076 9.71766C8.77317 9.92056 8.61018 9.90128 8.71518 10.2081C8.73031 10.2522 8.79607 10.4974 8.89879 10.6895C8.98156 10.8447 9.10049 10.9522 9.11495 10.9848C9.2683 11.3296 9.28344 10.8524 9.39272 10.6991C9.49598 10.5583 9.56723 10.4509 9.72313 10.3489C9.81848 10.2903 9.87165 10.3356 9.82947 10.347C9.78955 10.3585 9.74857 10.4315 9.72313 10.4642C9.60232 10.6194 9.55585 10.7022 9.49973 10.8875C9.42781 11.1624 9.39098 11.3489 9.51728 11.6334C9.56321 11.7361 9.69848 11.8592 9.77696 11.9607C9.88866 12.1051 10.0065 12.2404 10.1188 12.3865C10.1599 12.4396 10.2637 12.6002 10.3421 12.5852C10.3838 12.5773 10.4165 12.5284 10.437 12.4995C10.5366 12.3479 10.5233 12.1293 10.5287 11.9505C10.5342 11.7705 10.5378 11.6383 10.5692 11.4596C10.5981 11.2952 10.5951 11.1346 10.6253 10.9655C10.6452 10.8531 10.6821 10.6678 10.6253 10.5585C10.5824 10.4884 10.4816 10.4088 10.4181 10.3472C10.2544 10.1811 10.1167 10.0222 9.96393 9.85015C9.7834 9.64658 9.65536 9.63399 9.47296 9.47757C9.29537 9.32542 9.2114 9.08743 9.20725 8.88024C9.20417 8.7226 9.26336 8.86872 9.27314 8.92738C9.30702 9.11877 9.27984 9.20341 9.44711 9.3695C9.60836 9.52887 9.80523 9.57722 9.98163 9.75295C10.0572 9.83022 10.3373 10.166 10.5433 10.2608C10.5862 10.2807 10.6363 10.3647 10.6707 10.3592C10.7148 10.352 10.739 10.2439 10.7576 10.1768C10.8101 9.99025 10.8301 9.68101 10.7932 9.48589C10.7594 9.30536 10.7697 9.35732 10.8048 9.21348C10.7981 9.21777 10.8127 9.17424 10.8066 9.17906C10.5729 8.84692 10.358 8.50325 10.1943 8.12759C9.48235 8.02968 8.71778 7.84379 8.41764 7.10813C8.46532 7.08885 8.50094 7.12688 8.57219 7.21327C8.76733 7.63903 9.22993 7.82263 9.70763 7.9259C9.85857 7.95858 10.0108 7.98322 10.1569 8.00505C9.93235 7.41684 9.93168 7.26468 9.98605 6.62265C9.99811 6.5593 10.0284 6.53627 10.079 6.54055C10.0313 7.10949 10.0917 7.42409 10.2547 7.86552C10.4032 8.26769 10.6177 8.63188 10.8574 8.98221C10.8834 8.78413 10.9106 8.51414 10.9794 8.41447C10.9963 8.4876 10.9606 9.13742 10.945 9.24844C10.9214 9.41812 10.9643 9.49969 10.9667 9.65973C10.971 9.96348 10.8567 10.266 10.829 10.5699C10.8127 10.7625 10.7946 10.9305 10.7656 11.122C10.7427 11.2772 10.8309 11.2935 10.9649 11.2228C11.2282 11.0833 11.2337 10.6974 11.5206 10.5121C11.5483 10.4952 11.6166 10.4632 11.6879 10.4353L11.6939 10.5073C11.6703 10.5164 11.654 10.5224 11.6523 10.5229C11.4065 10.6298 11.3624 10.8907 11.241 11.096C11.1226 11.2917 11.0308 11.3437 10.8708 11.4958C10.6878 11.6703 10.7367 11.8316 10.7446 12.058C10.7555 12.3624 10.7355 12.5514 10.6909 12.8467C10.6673 13.0007 10.6818 13.0419 10.7942 13.1716C11.0122 13.4108 11.2144 13.6891 11.3757 13.9695C11.3962 14.0051 11.407 14.0438 11.418 14.0836C11.4247 14.1071 11.4392 14.1319 11.4469 14.1572C11.4662 14.22 11.4747 14.336 11.4771 14.4037C11.4783 14.4284 11.4704 14.4701 11.4686 14.4978C11.4662 14.525 11.4656 14.5401 11.4607 14.5679C11.4535 14.6059 11.4516 14.6415 11.4432 14.6783C11.4203 14.7774 11.4239 14.8957 11.4232 14.9978C11.4232 15.0098 11.4214 15.0618 11.4305 15.0678C11.4504 15.0811 11.4498 14.9826 11.4498 14.9737C11.4528 14.8758 11.4528 14.7732 11.4799 14.6789C11.4895 14.6462 11.4919 14.613 11.501 14.578C11.5071 14.5545 11.5119 14.5388 11.5155 14.5135C11.5198 14.4808 11.527 14.4567 11.5336 14.4259C11.5391 14.4006 11.5403 14.3479 11.5427 14.3195C11.547 14.2586 11.5511 14.1958 11.5566 14.1354C11.5621 14.0702 11.591 14.0285 11.6206 13.9717C11.6545 13.9065 11.6859 13.8413 11.7155 13.7742C11.8399 13.4928 11.9794 13.1776 12.0633 12.7741C11.6272 12.599 11.463 12.1841 11.315 11.7862C11.3379 11.6297 11.3114 11.5977 11.4243 11.7142C11.5445 12.0373 11.7456 12.4106 12.0989 12.5761C12.1593 12.1744 12.1623 11.6907 12.0518 11.0801C12.0337 10.9822 11.9938 10.8543 11.9473 10.7056C11.7818 10.1783 11.5681 9.53402 11.8828 8.63779C11.8109 8.35573 11.4014 7.81037 11.2909 7.46378C11.1388 7.05129 11.0209 6.5682 11.0651 6.03797C11.1249 5.91717 11.1508 6.07065 11.1496 6.18288C11.1073 6.68832 11.2517 6.99086 11.3966 7.38357C11.4062 7.41009 11.4166 7.43607 11.4267 7.46205C11.9884 7.43728 12.858 7.22835 13.0954 6.57422C13.1919 6.47271 13.1582 6.48784 13.1666 6.60315C12.8804 7.30546 12.1423 7.47223 11.4588 7.57546C11.5873 7.86113 11.7818 8.15952 11.9601 8.41666C12.0138 8.28019 12.0053 8.28139 12.0838 8.13822C12.1454 8.06698 12.2347 8.07113 12.1804 8.18055C11.7625 8.9469 11.7896 9.44216 12.074 10.2538C12.1005 10.3298 12.1441 10.3582 12.2226 10.3057C12.4399 10.1414 12.5143 9.76347 12.4859 9.52066C12.4611 9.30932 12.4466 9.19334 12.4774 8.9784C12.4817 8.95067 12.5034 8.76465 12.5554 8.77603C12.585 8.78273 12.5578 8.92884 12.5554 8.95175C12.5313 9.15706 12.5349 9.26393 12.5633 9.46682C12.5844 9.6136 12.5856 9.69758 12.5705 9.84489C12.5693 9.85574 12.5681 9.86658 12.5669 9.8781C12.5385 10.0726 12.4352 10.3292 12.3476 10.5092C12.2329 10.7429 12.2817 10.8088 12.3664 11.0358C12.3743 11.0581 12.3827 11.0805 12.3912 11.1029C12.6884 12.7467 12.1406 13.2413 12.0167 14.8105C12.0699 14.9428 12.1048 15.0545 12.1363 15.1927C12.1508 15.2555 12.1616 15.3201 12.1755 15.3836C12.1828 15.4175 12.1924 15.4457 12.1979 15.4808C12.2082 15.5412 12.2124 15.6149 12.2167 15.6765C12.2203 15.7242 12.2234 15.7718 12.2258 15.8196C12.2276 15.8498 12.2246 15.8909 12.2234 15.9217C12.2209 15.9863 12.192 16.0618 12.169 16.1222C12.1545 16.1597 12.1346 16.1971 12.1201 16.2351C12.1013 16.2834 12.0845 16.3239 12.0688 16.374C12.0597 16.4024 12.0525 16.4229 12.0464 16.4531C12.0385 16.4906 12.032 16.5159 12.0277 16.5552C12.021 16.6197 12.0072 16.6512 12.0174 16.7195C12.0229 16.7564 12.0253 16.789 12.033 16.8259C12.0342 16.8307 12.0439 16.8839 12.0439 16.8839C12.0499 16.8954 12.0547 16.8772 12.0547 16.8682C12.0541 16.841 12.0427 16.806 12.0403 16.7764C12.0348 16.7148 12.0263 16.6883 12.036 16.6236C12.0403 16.5959 12.0451 16.5687 12.0492 16.5403C12.0613 16.451 12.1017 16.341 12.1386 16.2583C12.1621 16.2046 12.1887 16.1543 12.2105 16.0994C12.237 16.0318 12.2594 15.9835 12.2654 15.9086C12.2685 15.873 12.2738 15.8422 12.2745 15.8059C12.2769 15.6995 12.2836 15.5909 12.2824 15.4846C12.2818 15.4236 12.2721 15.3698 12.2745 15.3076C12.2776 15.2443 12.2866 15.2207 12.3041 15.1603C12.5354 14.3868 12.7909 13.775 13.3429 13.1692C13.4558 13.0393 13.4697 12.9983 13.4461 12.8443C13.4014 12.549 13.3821 12.36 13.3924 12.0556C13.4003 11.8285 13.4492 11.6673 13.2663 11.4934C13.1062 11.3412 13.0319 11.2796 12.8961 11.0936C12.7849 10.942 12.8031 10.9269 13.0362 11.1249C13.0797 11.1618 13.1262 11.1957 13.1726 11.2203C13.3062 11.291 13.3948 11.2752 13.3719 11.1195C13.3435 10.9281 13.3248 10.7607 13.3086 10.5674C13.2814 10.2636 13.1673 9.96108 13.1709 9.6572C13.1733 9.49716 13.2162 9.41559 13.1921 9.24591C13.1764 9.13475 13.1408 8.48494 13.1582 8.41194C13.2325 8.51882 13.2585 8.82444 13.2862 9.02374C13.7392 8.37084 14.0472 7.74337 14.1172 7.00301C14.1281 6.88823 14.168 6.78497 14.1668 6.66417C14.1909 6.61046 14.22 6.57484 14.2423 6.65091C14.2158 7.70893 13.9682 8.32313 13.3666 9.17653C13.355 9.19769 13.3437 9.21818 13.3321 9.23934C13.3702 9.41573 13.3793 9.29184 13.343 9.4839C13.3062 9.67956 13.3266 9.98882 13.3786 10.1748C13.3974 10.2419 13.4221 10.3493 13.4655 10.3572C13.5 10.3627 13.5495 10.2787 13.5929 10.2588C13.7989 10.1646 14.0784 9.82875 14.1546 9.75095C14.3303 9.57524 14.5272 9.52756 14.6891 9.3675C14.8571 9.20197 14.8292 9.11692 14.8631 8.92539C14.8734 8.86619 14.9319 8.72008 14.929 8.87825C14.9247 9.08543 14.8409 9.32327 14.6633 9.47557C14.4809 9.632 14.3528 9.64472 14.1723 9.84815C14.0195 10.0203 13.8818 10.1791 13.7182 10.3452C13.6553 10.4068 13.5545 10.4871 13.511 10.5565C13.4542 10.6658 13.491 10.8513 13.511 10.9635C13.5411 11.1327 13.5381 11.2927 13.5671 11.4576C13.5984 11.6357 13.6015 11.768 13.6075 11.9485C13.613 12.1273 13.5996 12.3459 13.6993 12.4975C13.7198 12.5264 13.7524 12.5755 13.7941 12.5832C13.8726 12.5984 13.9765 12.4377 14.0175 12.3845C14.1298 12.2384 14.2476 12.1031 14.3593 11.9587C14.4372 11.8572 14.573 11.7347 14.619 11.6314C14.7451 11.3476 14.7083 11.1604 14.6365 10.8855C14.5804 10.7007 14.5338 10.6174 14.4131 10.4622C14.3878 10.4295 14.346 10.3565 14.3068 10.345C14.2644 10.3335 14.3176 10.2882 14.4131 10.3469C14.5695 10.4489 14.6402 10.5558 14.7435 10.6971C14.8528 10.8505 14.8679 11.3277 15.0213 10.9828C15.0357 10.9501 15.1548 10.8427 15.2374 10.6875C15.3395 10.4954 15.4059 10.2502 15.4211 10.2061C15.5262 9.89929 15.3625 9.91871 15.2749 9.71566C15.1638 9.45839 15.1354 9.35272 15.1476 9.21022C15.1741 9.22589 15.2037 9.23795 15.2345 9.24531C15.246 9.34978 15.2834 9.44701 15.3698 9.59619C15.3975 9.64628 15.4773 9.82816 15.5666 9.74231C15.6554 9.64816 15.6766 9.52307 15.6959 9.40896C15.7351 9.17217 15.7931 8.95117 15.8239 8.7108C15.8378 8.60272 15.8396 8.45472 15.8674 8.35577C15.9333 8.33099 15.926 8.37934 15.9266 8.42943C15.9278 8.72903 15.8922 9.03694 15.8439 9.33653C15.8366 9.38179 15.7805 9.6005 15.8662 9.57264C15.9454 9.54666 16.1827 9.25858 16.4749 9.1596C16.4942 9.15357 16.7086 9.1059 16.5982 9.15652C16.4925 9.20487 16.4085 9.23447 16.3185 9.30813C16.211 9.39625 16.1125 9.50741 15.9991 9.60223C15.8717 9.7067 15.7835 9.72358 15.7406 9.88121C15.6682 10.1493 15.5999 10.3927 15.5062 10.6584C15.4525 10.8093 15.3854 10.9585 15.3341 11.1065C15.6783 11.0908 16.0099 10.9597 16.3041 10.7876C16.4605 10.6959 16.5082 10.6258 16.6302 10.5147C16.8929 10.2749 17.091 9.9669 17.2564 9.67094C17.3077 9.5792 17.274 9.59367 17.3717 9.59487C17.2582 9.85523 17.0849 10.1499 16.888 10.3709C16.8247 10.4416 16.6929 10.5302 16.6844 10.6082C16.67 10.7422 16.8844 10.7314 16.9852 10.7211C17.2305 10.6963 17.3494 10.6934 17.5511 10.5393C17.5518 10.5387 17.6882 10.4476 17.6404 10.5134C17.5444 10.6457 17.4502 10.6903 17.2871 10.7519C17.1983 10.7858 17.06 10.7954 16.9658 10.8002C16.8758 10.8045 16.7846 10.7911 16.7025 10.8009C16.5425 10.819 16.3807 10.8534 16.2392 10.9332C15.8884 11.1313 15.7254 11.2206 15.3165 11.295C15.2247 11.3113 15.2506 11.2895 15.2072 11.3633C14.9432 11.8047 14.6245 12.2045 14.3194 12.6242L14.3423 12.6218C15.651 12.5113 17.1995 12.4056 17.982 11.243C18.0793 11.0986 18.1252 10.9924 18.2025 10.845C18.2586 10.7381 18.3402 10.671 18.2822 10.8395C18.0985 11.3793 17.68 11.8426 17.1558 12.1632C17.6547 12.3608 18.2381 12.4265 18.9229 12.1632L18.9174 12.2291C18.2324 12.4924 17.6491 12.4267 16.9975 12.295C16.6182 12.4267 16.0976 12.4925 15.7123 12.69C16.9474 12.8875 17.805 14.0729 19.3051 13.7432C19.3788 13.7432 19.4471 13.8091 19.3734 13.8091C17.9525 14.0724 17.3509 13.3483 16.2801 12.9533C16.0651 12.8874 15.844 12.8874 15.5494 12.8874C13.8886 12.9043 13.6422 13.8361 13.3547 14.4679L13.3592 14.4687ZM19.5227 8.53832C20.0614 8.36796 20.3012 7.85703 20.0614 7.40233C19.5227 7.5159 19.2828 8.08362 19.5227 8.53832ZM10.2354 14.7389C9.83134 14.4617 9.77212 13.9001 10.1502 13.5654C10.5035 13.8082 10.5633 14.3698 10.2354 14.7389ZM13.7816 14.9309C14.2237 14.6682 14.3251 14.0843 13.9519 13.708C13.5649 13.9381 13.4639 14.5222 13.7816 14.9309ZM5.22145 8.34637C4.72256 8.15861 4.5885 7.6754 4.90498 7.33536C5.35189 7.56545 5.53792 8.00633 5.22145 8.34637ZM6.39666 11.3382C6.02823 11.177 5.92979 10.7632 6.16296 10.4722C6.49269 10.6691 6.62982 11.0472 6.39666 11.3382ZM9.13431 12.4386C8.70131 12.331 8.51703 11.8968 8.71767 11.5351C9.11504 11.6896 9.33495 12.0768 9.13431 12.4386ZM8.2327 10.8545C7.8739 10.5905 7.86786 10.1183 8.19158 9.86047C8.50015 10.1546 8.55641 10.5967 8.2327 10.8545ZM11.213 13.3493C11.4106 12.993 11.2354 12.5992 10.8676 12.5081C10.7239 12.8699 10.8459 13.2582 11.213 13.3493ZM11.5083 13.7123C11.8961 13.4925 11.9576 13.0244 11.6672 12.7296C11.3259 12.985 11.2179 13.4175 11.5083 13.7123ZM12.5743 13.673C12.962 13.4532 13.0236 12.9852 12.7331 12.6904C12.3919 12.9458 12.2838 13.3782 12.5743 13.673ZM6.67576 12.688C6.97897 12.3607 7.44811 12.4084 7.66802 12.7592C7.34124 13.0329 6.89567 13.0389 6.67576 12.688ZM8.06059 12.2628C7.88488 11.8527 8.11912 11.4433 8.52866 11.3846C8.64585 11.7947 8.47013 12.2041 8.06059 12.2628ZM9.98409 11.9203C9.80047 11.5525 9.98409 11.0929 10.3978 11.0012C10.6273 11.3689 10.3518 11.7826 9.98409 11.9203ZM11.3374 12.5913C11.5199 12.1843 11.2915 11.7711 10.8826 11.7066C10.7594 12.1148 10.9286 12.5267 11.3374 12.5913ZM13.3437 12.883C13.4041 12.4416 13.0689 12.1088 12.6583 12.1619C12.6547 12.5884 12.9331 12.9362 13.3437 12.883ZM15.0335 10.489C15.0335 10.0741 14.6705 9.76313 14.2563 9.86691C14.2563 10.2299 14.6192 10.5403 15.0335 10.489ZM17.3839 11.044C17.7674 11.1673 18.1153 10.9215 18.1334 10.5482C17.7548 10.4775 17.402 10.6708 17.3839 11.044ZM16.4345 12.6975C16.681 12.9566 17.1375 12.8371 17.3199 12.5194C17.0458 12.3207 16.6176 12.3799 16.4345 12.6975ZM17.2601 5.49343C16.9044 5.76222 16.905 6.23379 17.2317 6.48812C17.5366 6.1904 17.5867 5.74776 17.2601 5.49343ZM14.1679 12.0081C14.366 11.6119 14.1679 11.1173 13.7229 11.0182C13.4759 11.4144 13.7724 11.8594 14.1679 12.0081ZM15.1523 11.5551C14.9802 11.8685 15.2314 12.2677 15.5901 12.345C15.6965 12.0237 15.511 11.633 15.1523 11.5551ZM9.03468 13.9992C9.40727 14.2812 9.31848 14.8911 8.93196 15.1744C8.63424 14.8476 8.64817 14.2824 9.03468 13.9992ZM7.99713 13.9889C8.3728 14.173 8.39999 14.7244 8.10882 15.0396C7.79061 14.8035 7.70597 14.3041 7.99713 13.9889ZM8.48639 14.4019C8.11675 13.9321 8.25147 13.2563 8.81371 13.0043C9.13674 13.4156 9.00268 14.0914 8.48639 14.4019ZM7.61316 14.2291C7.84513 14.6742 7.4791 15.225 6.97367 15.3223C6.83478 14.8681 7.10773 14.3264 7.61316 14.2291ZM9.77584 14.1264C9.29155 14.0515 8.99436 13.5714 9.19058 13.1064C9.61459 13.1723 9.91164 13.6523 9.77584 14.1264ZM8.12837 12.994C8.36998 13.4337 8.01721 13.9929 7.51418 14.1023C7.36498 13.6517 7.62534 13.1034 8.12837 12.994ZM7.12164 13.4475C7.38682 13.9361 7.09687 14.5667 6.57815 14.6591C6.31297 14.1705 6.60292 13.5399 7.12164 13.4475ZM3.98731 14.1397C4.04102 14.6718 3.57842 15.0347 3.13151 15.0021C3.06079 14.5214 3.48842 14.0901 3.98731 14.1397ZM6.26772 13.9223C6.32143 14.4545 5.85883 14.8174 5.41192 14.7847C5.3412 14.304 5.76883 13.8728 6.26772 13.9223ZM5.30693 14.0015C5.188 14.5372 4.65163 14.8355 4.17523 14.5969C4.23496 14.1204 4.77136 13.8227 5.30693 14.0015ZM4.648 13.7279C4.41188 14.1059 3.89251 14.0521 3.60924 13.6742C3.93964 13.3505 4.41187 13.3505 4.648 13.7279ZM20.3917 12.7676C20.2256 13.2374 20.6622 13.7284 21.1726 13.7539C21.2462 13.2876 20.902 12.7931 20.3917 12.7676ZM3.17988 12.2041C3.0331 12.68 3.48912 13.1536 3.99938 13.1584C4.05429 12.6898 3.69014 12.2096 3.17988 12.2041ZM16.0936 13.9894C15.7179 14.1736 15.6907 14.7249 15.9819 15.0402C16.3001 14.8041 16.3848 14.3047 16.0936 13.9894ZM15.6043 14.4024C15.974 13.9326 15.8399 13.2568 15.2776 13.0049C14.9545 13.4162 15.0886 14.092 15.6043 14.4024ZM2.90491 9.52461C2.67362 9.96964 3.03898 10.5205 3.54441 10.6177C3.68329 10.1636 3.41034 9.62185 2.90491 9.52461ZM11.2034 5.17101C10.9739 4.76641 11.1551 4.30623 11.5579 4.18904C11.7288 4.60153 11.6063 5.05383 11.2034 5.17101ZM10.6121 4.12143C10.3826 3.71682 10.5632 3.25664 10.966 3.13945C11.1369 3.55194 11.0148 4.00424 10.6121 4.12143ZM9.77868 3.4964C9.42297 3.19626 9.4338 2.7022 9.77078 2.45281C10.074 2.7808 10.1157 3.24755 9.77868 3.4964ZM10.0692 6.32939C9.83962 5.92479 10.0208 5.4646 10.4237 5.34741C10.5946 5.75991 10.472 6.2122 10.0692 6.32939ZM14.3257 14.259C14.8307 14.1618 15.1241 13.6467 14.9 13.1659C14.4586 13.251 14.165 13.7661 14.3257 14.259ZM10.1374 5.02688C10.1978 4.58545 9.86258 4.25264 9.45196 4.30581C9.44835 4.73226 9.72678 5.08005 10.1374 5.02688ZM13.2984 12.1213C13.3588 11.6798 13.0236 11.347 12.6129 11.4002C12.6093 11.8267 12.8878 12.1745 13.2984 12.1213ZM12.0743 11.6423C12.1347 11.2009 11.7995 10.8688 11.3888 10.9213C11.3852 11.3477 11.6637 11.6955 12.0743 11.6423ZM10.8822 10.6163C10.9438 10.2238 11.3152 10.0257 11.6521 10.1754C11.5458 10.5403 11.2191 10.7661 10.8822 10.6163ZM11.6473 10.0178C11.7994 9.59871 11.5428 9.20308 11.1303 9.16746C11.0362 9.58359 11.2348 9.98216 11.6473 10.0178ZM11.0524 9.03875C11.4981 9.04478 11.7879 8.67272 11.6858 8.2712C11.2625 8.31887 10.9503 8.63723 11.0524 9.03875ZM6.25852 7.24263C5.80318 7.64065 5.16968 7.51798 4.91535 7.02164C5.39603 6.69794 6.00419 6.74629 6.25852 7.24263ZM11.5677 8.12322C11.2349 8.42041 10.7723 8.32853 10.5862 7.95835C10.9371 7.71675 11.3816 7.75304 11.5677 8.12322ZM10.9843 6.04626C10.5361 5.84215 10.436 5.36082 10.7415 5.03709C11.14 5.28111 11.2897 5.72253 10.9843 6.04626ZM8.95753 4.45492C9.42855 4.38126 9.66951 3.91077 9.49379 3.47953C9.05596 3.60997 8.78182 4.02368 8.95753 4.45492ZM8.23403 6.87971C8.70454 6.80605 8.94601 6.33556 8.77029 5.90432C8.33247 6.03476 8.05832 6.44847 8.23403 6.87971ZM9.13444 7.50903C9.44784 7.2922 9.87238 7.40389 10.0108 7.77179C9.7366 7.96144 9.31204 7.84974 9.13444 7.50903ZM8.60233 9.25372C8.42474 8.84912 8.64519 8.39013 9.0945 8.3134C9.24972 8.66723 9.02928 9.12635 8.60233 9.25372ZM9.90022 7.15575C9.88816 6.71003 9.50339 6.43643 9.10722 6.55482C9.17244 6.97575 9.50404 7.27413 9.90022 7.15575ZM8.76666 4.214C8.23763 4.16029 7.95371 3.74178 8.13735 3.34681C8.6314 3.45315 8.9503 3.81903 8.76666 4.214ZM9.78011 6.45824C9.25108 6.40453 8.96716 5.98602 9.1508 5.59105C9.64486 5.69739 9.96375 6.06327 9.78011 6.45824ZM9.82485 4.14155C9.6727 3.72248 9.92931 3.32685 10.3418 3.29123C10.436 3.70667 10.2373 4.10593 9.82485 4.14155ZM10.151 7.18173C9.99882 6.76266 10.2554 6.36704 10.6679 6.33141C10.7621 6.74685 10.5635 7.14611 10.151 7.18173ZM10.3067 7.89076C10.1546 7.47169 10.4112 7.07607 10.8237 7.04099C10.9178 7.45643 10.7192 7.85569 10.3067 7.89076ZM8.99557 7.61661C8.66101 7.42215 8.66276 7.00067 8.97267 6.73067C9.25887 6.95714 9.30548 7.34661 8.99557 7.61661ZM9.32356 8.95735C9.17141 8.53828 9.42802 8.14266 9.84052 8.10703C9.93467 8.52316 9.73605 8.92173 9.32356 8.95735ZM10.5736 9.76602C10.7512 9.33422 10.4184 8.74722 9.85139 8.69219C9.69616 9.20246 10.0574 9.73938 10.5736 9.76602ZM7.80641 8.40357C7.65427 7.9845 7.91088 7.58887 8.32337 7.5538C8.41753 7.96924 8.21891 8.3685 7.80641 8.40357ZM8.31305 8.59442C8.17056 8.24902 8.43747 7.77907 8.89163 7.73446C9.01605 8.14336 8.72729 8.57326 8.31305 8.59442ZM8.73158 5.48848C8.32337 5.27231 8.20375 4.7287 8.496 4.3253C8.93983 4.58191 9.02383 5.08507 8.73158 5.48848ZM7.44278 5.51379C6.85029 5.71133 6.25725 5.38214 6.19149 4.85554C6.71808 4.59223 7.31112 4.98719 7.44278 5.51379ZM7.04541 6.30798C6.45292 6.50553 5.85988 6.17633 5.79412 5.64973C6.32071 5.38643 6.91375 5.78138 7.04541 6.30798ZM8.22251 7.44826C7.79006 7.61071 7.30389 7.34018 7.19582 6.85402C7.68199 6.69156 8.11444 6.9621 8.22251 7.44826ZM7.73273 7.97485C7.14024 8.1724 6.5472 7.8432 6.48144 7.3166C7.00804 7.0533 7.60108 7.44825 7.73273 7.97485ZM6.74596 8.21699C6.27909 8.52382 5.72112 8.32695 5.55748 7.83598C6.03761 7.60106 6.58231 7.72602 6.74596 8.21699ZM6.32983 8.67049C6.11488 9.04736 5.52237 9.10109 5.19933 8.77804C5.41495 8.34744 6.06048 8.29375 6.32983 8.67049ZM9.92915 5.53671C9.45864 5.73117 8.98763 5.4068 8.93513 4.88878C9.35366 4.62909 9.82416 5.01869 9.92915 5.53671ZM8.095 6.59837C7.62398 6.79283 7.15348 6.46845 7.10099 5.95043C7.51951 5.69142 7.99001 6.08035 8.095 6.59837ZM8.0587 8.95002C7.46621 9.14757 6.87317 8.81837 6.80741 8.29177C7.334 8.02847 7.92704 8.42342 8.0587 8.95002ZM3.8227 11.4165C3.23021 11.614 2.63717 11.2848 2.57141 10.7582C3.09801 10.4949 3.69105 10.8899 3.8227 11.4165ZM7.48784 10.4018C7.31213 9.99173 7.54637 9.58232 7.95646 9.52366C8.07365 9.93375 7.89794 10.3432 7.48784 10.4018ZM11.8809 4.86022C11.8809 4.4181 12.2679 4.08666 12.7095 4.19713C12.7095 4.58418 12.3224 4.91525 11.8809 4.86022ZM8.86493 10.6031C8.86493 10.161 9.25198 9.83003 9.69355 9.93999C9.69355 10.327 9.3065 10.6581 8.86493 10.6031ZM8.09378 11.2957C8.04007 11.7234 7.55926 12.0977 7.13175 11.9371C7.13175 11.4564 7.61244 11.1352 8.09378 11.2957ZM6.79414 13.2168C6.33331 13.3485 5.80668 13.0193 5.80668 12.5586C6.20165 12.4269 6.72825 12.7561 6.79414 13.2168ZM9.77631 11.2305C9.59216 10.8627 9.77631 10.4031 10.19 10.3113C10.4201 10.6791 10.1441 11.0928 9.77631 11.2305ZM4.97254 8.73567C4.56969 8.8866 4.11674 8.63482 4.0159 8.18189C4.46885 8.03095 4.87171 8.28273 4.97254 8.73567ZM5.00884 10.3645C4.60598 10.5155 4.15303 10.2637 4.0522 9.81073C4.50515 9.6598 4.908 9.91158 5.00884 10.3645ZM4.72558 10.7378C4.38862 11.1303 3.8276 11.1864 3.4905 10.7939C3.77135 10.4007 4.33239 10.3446 4.72558 10.7378ZM5.54268 9.99262C5.06079 10.1128 4.58 9.69181 4.58 9.15022C5.06134 9.03008 5.54268 9.45102 5.54268 9.99262ZM5.1477 12.1625C4.83431 12.5286 4.31185 12.4759 3.99845 12.11C4.31184 11.7966 4.88679 11.7966 5.1477 12.1625ZM5.01605 11.0682C4.95806 11.5315 4.37951 11.8781 3.85836 11.6468C3.97434 11.1262 4.55292 10.8369 5.01605 11.0682ZM5.78909 10.4535C5.64539 10.8859 5.1054 11 4.77324 10.7089C4.93503 10.3223 5.42975 10.227 5.78909 10.4535ZM8.26102 6.02785C7.66853 5.83031 7.40522 5.23794 7.66853 4.71066C8.26103 4.84231 8.52434 5.50057 8.26102 6.02785ZM5.87186 12.2295C5.27937 12.0319 5.01605 11.4395 5.27937 10.9123C5.87186 11.0439 6.13517 11.7022 5.87186 12.2295ZM4.55896 8.95074C4.27034 9.34277 3.70624 9.41038 3.36808 9.13128C3.6658 8.68625 4.22992 8.61792 4.55896 8.95074ZM7.70789 11.05C7.41928 11.442 6.85517 11.5096 6.51701 11.2305C6.81474 10.7855 7.37885 10.7171 7.70789 11.05ZM7.21329 6.72207C6.99833 7.09894 6.40583 7.15266 6.08279 6.82961C6.29841 6.39902 6.94394 6.34533 7.21329 6.72207ZM6.68241 10.1245C6.46745 10.5014 5.87495 10.5551 5.55245 10.2321C5.76741 9.80146 6.41361 9.74777 6.68241 10.1245ZM4.63504 7.9159C4.09812 8.09469 3.56121 7.7963 3.50148 7.31926C3.97922 7.08073 4.51545 7.43886 4.63504 7.9159ZM6.66177 9.79839C6.12485 9.97718 5.58794 9.67879 5.52821 9.20175C6.00527 8.96322 6.54218 9.32135 6.66177 9.79839ZM5.7402 13.6782C5.14771 13.4806 4.8844 12.8883 5.14771 12.361C5.7402 12.4926 5.93831 13.1509 5.7402 13.6782ZM5.01605 13.6123C4.48877 13.6782 3.96218 13.2173 4.02859 12.6248C4.55519 12.4932 5.08181 12.954 5.01605 13.6123ZM15.2394 5.66655C15.0793 5.2124 15.3493 4.78301 15.7829 4.74499C15.8813 5.19553 15.6729 5.62853 15.2394 5.66655ZM12.8025 5.32892C12.6425 4.87477 12.9125 4.44537 13.346 4.40735C13.4445 4.8579 13.2361 5.29034 12.8025 5.32892ZM11.4268 6.9939C11.2668 6.53975 11.5368 6.11036 11.9703 6.07233C12.0688 6.52288 11.8604 6.95588 11.4268 6.9939ZM12.2047 7.26564C12.5695 7.00836 12.5845 6.53734 12.2663 6.27283C11.9522 6.56024 11.887 7.00113 12.2047 7.26564ZM12.9554 4.28103C12.7778 3.77919 13.0774 3.30509 13.5581 3.26278C13.6674 3.76047 13.4361 4.23873 12.9554 4.28103ZM12.0507 5.90988C11.8731 5.40804 12.1727 4.93394 12.6534 4.89163C12.7627 5.38932 12.5314 5.86757 12.0507 5.90988ZM11.2964 6.04394C11.1443 5.62487 11.4009 5.22925 11.8134 5.19362C11.9075 5.60906 11.7089 6.00832 11.2964 6.04394ZM12.6842 4.01601C12.8363 3.59694 12.5797 3.20132 12.1672 3.16569C12.0731 3.58182 12.2717 3.98039 12.6842 4.01601ZM12.974 6.69445C13.1262 6.27537 12.8695 5.87975 12.4571 5.84413C12.3629 6.25957 12.5615 6.65882 12.974 6.69445ZM12.8067 3.52209C13.2676 3.29495 13.3702 2.75992 13.0561 2.40002C12.6467 2.67123 12.4927 3.1622 12.8067 3.52209ZM13.1323 6.27297C13.5932 6.04583 13.6958 5.5108 13.3817 5.1509C12.9723 5.42211 12.8182 5.91308 13.1323 6.27297ZM10.158 4.45703C10.5747 4.29886 10.9746 4.54998 11.0156 4.96196C10.6013 5.0616 10.199 4.86901 10.158 4.45703ZM11.7989 7.56966C12.2156 7.41149 12.6155 7.6626 12.6565 8.07458C12.2422 8.17423 11.8406 7.98164 11.7989 7.56966ZM15.6797 4.48233C15.9938 4.05109 15.8434 3.48469 15.3959 3.27873C15.1483 3.72928 15.2323 4.27638 15.6797 4.48233ZM16.666 7.21086C17.0669 6.85943 17.044 6.27362 16.6527 5.97455C16.3121 6.35985 16.2746 6.91179 16.666 7.21086ZM12.1865 9.73648C12.5307 9.45322 12.5121 8.9822 12.175 8.74127C11.8821 9.05105 11.8494 9.49556 12.1865 9.73648ZM12.7059 9.84698C13.128 9.7038 13.2766 9.25633 13.0465 8.91214C12.663 9.0987 12.4758 9.50278 12.7059 9.84698ZM13.1425 10.969C13.2946 10.55 13.038 10.1543 12.6255 10.1187C12.5314 10.5348 12.73 10.9334 13.1425 10.969ZM15.9677 5.73121C16.0469 5.34831 16.5535 5.09652 16.9739 5.32541C16.8423 5.75305 16.3392 5.95596 15.9677 5.73121ZM12.1308 8.60292C12.2099 8.22002 12.7166 7.96877 13.137 8.19711C13.0054 8.62476 12.5029 8.82766 12.1308 8.60292ZM12.5276 7.38176C12.9649 7.29538 13.317 7.61011 13.2886 8.02249C12.8634 8.05142 12.4992 7.79415 12.5276 7.38176ZM15.1746 6.54176C14.9861 6.1136 15.3038 5.70831 15.8136 5.67269C15.9295 6.0979 15.6843 6.50614 15.1746 6.54176ZM20.6877 8.77503C20.3967 8.44222 19.887 8.44825 19.6273 8.82218C19.8821 9.11267 20.3912 9.10717 20.6877 8.77503ZM18.2261 6.78444C17.9351 6.45229 17.4259 6.45765 17.1662 6.83158C17.4211 7.12261 17.9301 7.11725 18.2261 6.78444ZM17.5262 4.78181C17.2352 4.44967 16.7255 4.45502 16.4657 4.82895C16.7206 5.11998 17.2297 5.11395 17.5262 4.78181ZM15.3545 7.0985C15.0635 6.76568 14.5538 6.77171 14.2946 7.14564C14.5495 7.43613 15.0586 7.43064 15.3545 7.0985ZM15.4609 9.25448C15.6385 8.84988 15.418 8.39089 14.9692 8.31416C14.8135 8.66799 15.0344 9.12711 15.4609 9.25448ZM14.4282 6.58808C14.2494 6.14477 14.5502 5.72573 15.0339 5.68822C15.1439 6.12845 14.9119 6.55057 14.4282 6.58808ZM14.2445 6.37554C14.401 5.88508 14.137 5.42198 13.7131 5.38033C13.6166 5.86715 13.8207 6.33388 14.2445 6.37554ZM13.9728 7.15821C14.1249 6.73914 13.8683 6.34352 13.4558 6.30789C13.3617 6.72333 13.5603 7.12259 13.9728 7.15821ZM13.7566 7.89135C13.9088 7.47227 13.6522 7.07665 13.2397 7.04157C13.1455 7.45701 13.3441 7.85627 13.7566 7.89135ZM14.8637 8.21023C15.0158 7.79116 14.7592 7.39553 14.3467 7.35991C14.2526 7.77535 14.4512 8.17461 14.8637 8.21023ZM14.7393 8.95848C14.8914 8.53941 14.6348 8.14378 14.2223 8.10816C14.1282 8.52429 14.3268 8.92286 14.7393 8.95848ZM13.4892 9.76714C13.3116 9.33535 13.6444 8.74834 14.2114 8.69332C14.3672 9.20359 14.0061 9.7405 13.4892 9.76714ZM14.9313 5.56371C15.0835 5.14464 14.8268 4.74902 14.4144 4.71339C14.3202 5.12952 14.5188 5.52809 14.9313 5.56371ZM15.7032 8.38707C15.8553 7.968 15.5987 7.57238 15.1862 7.53676C15.092 7.95288 15.2907 8.35145 15.7032 8.38707ZM16.089 5.05399C16.4864 4.81908 16.5812 4.27131 16.2707 3.88173C15.8395 4.15829 15.7786 4.66509 16.089 5.05399ZM15.6185 7.47929C16.0159 7.24438 16.1107 6.69593 15.8002 6.30648C15.369 6.58304 15.3081 7.08984 15.6185 7.47929ZM15.9477 8.16178C16.3819 8.00361 16.5752 7.48238 16.3414 7.04215C15.8668 7.23541 15.714 7.7221 15.9477 8.16178ZM16.3299 7.97576C16.9224 8.1733 17.5154 7.84411 17.5812 7.31751C17.0546 7.0542 16.4616 7.44916 16.3299 7.97576ZM17.6229 6.3488C18.0457 6.61157 18.5505 6.44295 18.6984 6.02201C18.2642 5.82085 17.7708 5.92786 17.6229 6.3488ZM18.4804 8.88889C19.0855 8.91005 19.4316 8.38948 19.2443 7.81746C18.6761 7.87357 18.2932 8.31686 18.4804 8.88889ZM18.0407 7.39787C18.3898 7.65635 18.9533 7.46671 19.1187 7.04096C18.7485 6.73359 18.1355 6.94493 18.0407 7.39787ZM17.3172 8.62866C17.6663 8.88647 18.2298 8.6975 18.3952 8.27174C18.0244 7.96438 17.412 8.17572 17.3172 8.62866ZM13.6706 5.25995C14.2727 5.09388 14.5813 4.49 14.3421 4.01589C13.7575 4.09076 13.4863 4.74968 13.6706 5.25995ZM16.0035 8.95047C16.596 9.14801 17.189 8.81881 17.2548 8.29221C16.7282 8.02891 16.1352 8.42386 16.0035 8.95047ZM17.6733 5.84627C18.2192 5.83181 18.6076 5.38369 18.5043 4.93125C17.9929 4.87206 17.6244 5.37388 17.6733 5.84627ZM16.6334 9.47747C17.1509 9.65024 17.669 9.36216 17.727 8.90199C17.2662 8.6719 16.7487 9.0173 16.6334 9.47747ZM17.1376 9.75283C16.8224 9.43756 16.3549 9.50345 16.149 9.86278C16.4866 10.1231 16.9316 10.1122 17.1376 9.75283ZM15.3524 10.1514C15.3524 9.83077 15.0715 9.59089 14.7514 9.67071C14.7514 9.95156 15.0316 10.1913 15.3524 10.1514ZM15.9617 12.9947C15.7201 13.4344 16.0729 13.9936 16.5759 14.103C16.7251 13.6524 16.4642 13.1041 15.9617 12.9947ZM20.3342 11.7983C20.3958 12.2936 20.9527 12.7266 21.4478 12.5418V12.5031C21.423 11.9673 20.8783 11.6171 20.3342 11.7983V11.7983ZM15.5565 11.4366C15.6186 11.9318 16.1761 12.3654 16.6713 12.1793C16.6713 11.6219 16.1139 11.2505 15.5565 11.4366ZM17.2686 13.2175C17.7295 13.3492 18.2561 13.02 18.2561 12.5593C17.8611 12.4276 17.3345 12.7568 17.2686 13.2175ZM14.3396 11.2736C14.5377 10.8774 14.3396 10.3833 13.8946 10.2837C13.6476 10.6799 13.9441 11.1249 14.3396 11.2736ZM19.0546 10.3484C19.6156 10.5561 20.2467 10.2095 20.3869 9.58743C19.7558 9.37971 19.1948 9.72578 19.0546 10.3484ZM19.4018 10.6637C19.7672 11.0894 20.3747 11.1505 20.7402 10.7246C20.4358 10.2988 19.8276 10.2378 19.4018 10.6637ZM18.5207 9.99095C19.0473 10.1226 19.574 9.66175 19.574 9.06939C19.0474 8.93706 18.5207 9.39858 18.5207 9.99095ZM18.9157 12.098C19.3107 12.5589 19.9689 12.493 20.3646 12.0322C19.9696 11.6372 19.2449 11.6372 18.9157 12.098ZM19.0474 11.0684C19.1054 11.5317 19.6839 11.8783 20.205 11.647C20.0891 11.1264 19.5105 10.8371 19.0474 11.0684ZM20.3379 9.22288C20.4811 9.65533 21.0209 9.76943 21.3538 9.47828C21.1913 9.09178 20.6973 8.9964 20.3379 9.22288ZM18.2749 10.4537C18.418 10.8861 18.9579 11.0002 19.2907 10.7091C19.1283 10.3226 18.6342 10.2272 18.2749 10.4537ZM18.1916 12.2298C18.7841 12.0323 19.0474 11.4399 18.7841 10.9127C18.1916 11.0443 17.9282 11.7026 18.1916 12.2298ZM16.282 11.0443C16.5453 11.5709 17.2036 11.7685 17.665 11.5051C17.4017 10.9127 16.7434 10.7152 16.282 11.0443ZM20.2756 11.2653C20.4912 11.6422 21.0831 11.6959 21.4061 11.3728C21.1905 10.9422 20.545 10.8885 20.2756 11.2653ZM17.1267 10.1432C17.3416 10.5201 17.9341 10.5738 18.2572 10.2508C18.0416 9.82017 17.396 9.76648 17.1267 10.1432ZM17.4008 9.79903C17.9377 9.97782 18.4747 9.67943 18.5337 9.20239C18.0567 8.96386 17.5198 9.32199 17.4008 9.79903ZM16.9678 13.4487C16.7027 13.9373 16.9926 14.5679 17.5113 14.6603C17.7765 14.1717 17.4866 13.5411 16.9678 13.4487ZM17.8224 13.9234C17.7687 14.4555 18.2313 14.8184 18.6783 14.7858C18.749 14.3051 18.3213 13.8738 17.8224 13.9234ZM18.7832 14.0025C18.9022 14.5383 19.4385 14.8365 19.9149 14.598C19.8557 14.1215 19.3195 13.8237 18.7832 14.0025ZM18.3224 13.6788C18.9149 13.4813 19.1782 12.8889 18.9149 12.3617C18.3224 12.4933 18.125 13.1516 18.3224 13.6788ZM19.0466 13.6129C19.5731 13.6788 20.0998 13.218 20.034 12.6255C19.5074 12.4938 18.9808 12.9547 19.0466 13.6129ZM19.4415 13.7899C19.6885 14.1843 20.2321 14.128 20.5286 13.7338C20.1825 13.3956 19.6886 13.3956 19.4415 13.7899Z" fill="#797474"/>
</svg>
