<svg width="36" height="36" viewBox="0 0 36 36" fill="none" xmlns="http://www.w3.org/2000/svg">
<g clip-path="url(#clip0_1_838)">
<path d="M19.4389 17.9773L27.7067 9.70951C27.8701 9.51872 27.9555 9.2733 27.9458 9.0223C27.9361 8.77129 27.832 8.53319 27.6544 8.35558C27.4768 8.17796 27.2387 8.0739 26.9877 8.06421C26.7367 8.05451 26.4913 8.13989 26.3005 8.30328L18.0326 16.5711L9.76481 8.29331C9.57701 8.10551 9.3223 8 9.05671 8C8.79112 8 8.53641 8.10551 8.34861 8.29331C8.16081 8.48111 8.0553 8.73582 8.0553 9.00141C8.0553 9.267 8.16081 9.52171 8.34861 9.70951L16.6264 17.9773L8.34861 26.2452C8.24421 26.3346 8.15941 26.4446 8.09955 26.5683C8.03969 26.6921 8.00605 26.8268 8.00074 26.9642C7.99544 27.1015 8.01858 27.2385 8.06872 27.3665C8.11886 27.4945 8.19492 27.6107 8.29211 27.7079C8.3893 27.8051 8.50554 27.8811 8.63352 27.9313C8.7615 27.9814 8.89847 28.0046 9.03582 27.9993C9.17317 27.9939 9.30794 27.9603 9.43167 27.9004C9.55541 27.8406 9.66543 27.7558 9.75484 27.6514L18.0326 19.3836L26.3005 27.6514C26.4913 27.8148 26.7367 27.9002 26.9877 27.8905C27.2387 27.8808 27.4768 27.7767 27.6544 27.5991C27.832 27.4215 27.9361 27.1834 27.9458 26.9324C27.9555 26.6814 27.8701 26.436 27.7067 26.2452L19.4389 17.9773Z" fill="#797474"/>
</g>
<defs>
<clipPath id="clip0_1_838">
<rect width="36" height="36" fill="white"/>
</clipPath>
</defs>
</svg>
